<svg width="16" height="16" viewBox="0 0 16 16" fill="none" xmlns="http://www.w3.org/2000/svg">
<path fill-rule="evenodd" clip-rule="evenodd" d="M13.9981 8C13.9981 11.2186 11.3713 13.9355 8 13.9355C4.62872 13.9355 2.00186 11.2186 2.00186 8C2.00186 4.78144 4.62872 2.06452 8 2.06452C11.3713 2.06452 13.9981 4.78144 13.9981 8ZM16 8C16 12.4183 12.4183 16 8 16C3.58172 16 0 12.4183 0 8C0 3.58172 3.58172 0 8 0C12.4183 0 16 3.58172 16 8ZM11.9182 7.99824C11.9182 10.0915 10.208 11.8692 8.00022 11.8692C5.79244 11.8692 4.08226 10.0915 4.08226 7.99824C4.08226 5.905 5.79244 4.12727 8.00022 4.12727C10.208 4.12727 11.9182 5.905 11.9182 7.99824ZM13.4196 7.99824C13.4196 10.9913 10.9932 13.4176 8.00022 13.4176C5.00719 13.4176 2.58086 10.9913 2.58086 7.99824C2.58086 5.00521 5.00719 2.57889 8.00022 2.57889C10.9932 2.57889 13.4196 5.00521 13.4196 7.99824Z" fill="url(#paint0_linear_196_2011)"/>
<defs>
<linearGradient id="paint0_linear_196_2011" x1="8" y1="0" x2="8" y2="16" gradientUnits="userSpaceOnUse">
<stop stop-color="#EA686B"/>
<stop offset="1" stop-color="#ED8155"/>
</linearGradient>
</defs>
</svg>
