<svg width="24" height="24" viewBox="0 0 24 24" fill="none" xmlns="http://www.w3.org/2000/svg">
<path fill-rule="evenodd" clip-rule="evenodd" d="M12.3125 7.82403C12.1414 8.6667 11.3964 9.30095 10.5032 9.30095C9.6101 9.30095 8.86508 8.6667 8.69402 7.82403H4.36923C4.16529 7.82403 4 7.65874 4 7.4548C4 7.25086 4.16529 7.08557 4.36923 7.08557H8.69402C8.86507 6.2429 9.61009 5.60864 10.5032 5.60864C11.3964 5.60864 12.1414 6.2429 12.3125 7.08557H19.6308C19.8347 7.08557 20 7.25086 20 7.4548C20 7.65874 19.8347 7.82403 19.6308 7.82403H12.3125ZM4.36923 12.3693H13.7075C13.8785 13.212 14.6235 13.8462 15.5167 13.8462C16.4098 13.8462 17.1549 13.212 17.3259 12.3693H19.6308C19.8347 12.3693 20 12.204 20 12.0001C20 11.7962 19.8347 11.6309 19.6308 11.6309H17.3259C17.1549 10.7882 16.4098 10.1539 15.5167 10.1539C14.6235 10.1539 13.8785 10.7882 13.7075 11.6309H4.36923C4.16529 11.6309 4 11.7962 4 12.0001C4 12.204 4.16529 12.3693 4.36923 12.3693ZM5.6399 16.9145H4.36923C4.16529 16.9145 4 16.7492 4 16.5453C4 16.3413 4.16529 16.176 4.36923 16.176H5.6399C5.81095 15.3334 6.55596 14.6991 7.44912 14.6991C8.34228 14.6991 9.08729 15.3334 9.25835 16.176H19.6308C19.8347 16.176 20 16.3413 20 16.5453C20 16.7492 19.8347 16.9145 19.6308 16.9145H9.25834C9.08729 17.7572 8.34227 18.3914 7.44912 18.3914C6.55597 18.3914 5.81095 17.7572 5.6399 16.9145Z" fill="#757575"/>
</svg>
