<svg width="348" height="270" viewBox="0 0 348 270" fill="none" xmlns="http://www.w3.org/2000/svg">
<path d="M174.214 269.016C165.005 269.016 155.796 265.51 148.783 258.499L11.3343 121.05C-2.68956 107.029 -2.68956 84.2119 11.3343 70.1909L80.0571 1.46805L88.976 10.3869L20.2531 79.1097C11.1494 88.2134 11.1494 103.028 20.2531 112.132L157.702 249.58C166.805 258.684 181.62 258.684 190.726 249.58L328.175 112.132C337.279 103.028 337.279 88.2134 328.175 79.1097L258.534 9.46827L267.452 0.549438L337.094 70.1909C351.118 84.2119 351.118 107.029 337.094 121.05L199.645 258.499C192.632 265.51 183.423 269.016 174.214 269.016Z" fill="url(#paint0_linear_16_3705)"/>
<defs>
<linearGradient id="paint0_linear_16_3705" x1="174.214" y1="0.549438" x2="174.214" y2="269.016" gradientUnits="userSpaceOnUse">
<stop stop-color="#EA686B"/>
<stop offset="1" stop-color="#ED8155"/>
</linearGradient>
</defs>
</svg>
