<svg width="348" height="269" viewBox="0 0 348 269" fill="none" xmlns="http://www.w3.org/2000/svg">
<path d="M268.161 268.384L259.242 259.465L327.965 190.742C332.376 186.331 334.805 180.467 334.805 174.23C334.805 167.993 332.376 162.129 327.965 157.718L190.516 20.269C186.105 15.8579 180.241 13.4291 174.004 13.4291C167.767 13.4291 161.903 15.8579 157.491 20.269L20.0429 157.718C15.6319 162.129 13.2031 167.993 13.2031 174.23C13.2031 180.467 15.6319 186.331 20.0429 190.742L87.8472 258.547L78.9283 267.465L11.1241 199.661C4.33258 192.87 0.589844 183.837 0.589844 174.23C0.589844 164.623 4.32974 155.593 11.1241 148.799L148.573 11.3502C155.364 4.55865 164.397 0.815918 174.004 0.815918C183.611 0.815918 192.641 4.5558 199.435 11.3502L336.884 148.799C350.908 162.82 350.908 185.637 336.884 199.658L268.161 268.384Z" fill="url(#paint0_linear_16_3692)"/>
<defs>
<linearGradient id="paint0_linear_16_3692" x1="173.996" y1="0.815918" x2="173.996" y2="268.384" gradientUnits="userSpaceOnUse">
<stop stop-color="#EA686B"/>
<stop offset="1" stop-color="#ED8155"/>
</linearGradient>
</defs>
</svg>
