<svg width="347" height="270" viewBox="0 0 347 270" fill="none" xmlns="http://www.w3.org/2000/svg">
<path d="M173.402 269.016C164.193 269.016 154.981 265.51 147.97 258.499L10.5218 121.05C-3.50206 107.029 -3.50206 84.2119 10.5218 70.1909L79.2447 1.46805L88.1635 10.3869L19.4407 79.1097C10.337 88.2134 10.337 103.028 19.4407 112.132L156.889 249.58C165.993 258.684 180.807 258.684 189.914 249.58L327.362 112.132C336.466 103.028 336.466 88.2134 327.362 79.1097L257.721 9.46827L266.64 0.549438L336.281 70.1909C350.302 84.2119 350.302 107.029 336.281 121.05L198.833 258.499C191.822 265.51 182.61 269.016 173.402 269.016Z" fill="url(#paint0_linear_16_3693)"/>
<defs>
<linearGradient id="paint0_linear_16_3693" x1="173.401" y1="0.549438" x2="173.401" y2="269.016" gradientUnits="userSpaceOnUse">
<stop stop-color="#EA686B"/>
<stop offset="1" stop-color="#ED8155"/>
</linearGradient>
</defs>
</svg>
