<svg width="36" height="25" viewBox="0 0 36 25" fill="none" xmlns="http://www.w3.org/2000/svg">
<path d="M20.8009 0.974708C19.4925 2.27432 19.4925 4.37548 20.8009 5.66731L23.3001 8.1498C23.684 8.53113 23.4098 9.17705 22.8692 9.17705H3.34537C1.4964 9.17705 0 10.6634 0 12.5C0 14.3366 1.4964 15.823 3.34537 15.823H22.8692C23.4098 15.823 23.684 16.4689 23.3001 16.8502L20.8009 19.3327C19.4925 20.6323 19.4925 22.7335 20.8009 24.0253C22.1092 25.3249 24.2246 25.3249 25.533 24.0253L35.2009 14.4222C36.2664 13.3638 36.2664 11.6362 35.2009 10.5778L25.533 0.974708C24.2246 -0.324903 22.1092 -0.324903 20.8009 0.974708Z" fill="white"/>
</svg>
