<svg width="32" height="32" viewBox="0 0 32 32" fill="none" xmlns="http://www.w3.org/2000/svg">
<path d="M14.935 26.0192L21.1243 20.0173C21.5384 19.6165 21.7734 19.0639 21.7734 18.4897V7.66676C21.7734 6.47504 20.7661 5.5 19.535 5.5H9.47311C8.57773 5.5 7.77189 6.02002 7.42493 6.81089L3.77624 15.0554C2.8249 17.2005 4.44778 19.584 6.85412 19.584H13.1778L12.1145 24.5458C12.0026 25.0875 12.1705 25.6401 12.5734 26.0301C13.2337 26.6584 14.2858 26.6584 14.935 26.0192ZM26.2615 5.5C25.0304 5.5 24.0231 6.47504 24.0231 7.66676V16.3338C24.0231 17.5255 25.0304 18.5006 26.2615 18.5006C27.4927 18.5006 28.5 17.5255 28.5 16.3338V7.66676C28.5 6.47504 27.4927 5.5 26.2615 5.5Z" fill="#767677"/>
</svg>
