<svg width="30" height="20" viewBox="0 0 30 20" fill="none" xmlns="http://www.w3.org/2000/svg">
<path d="M20.2727 8.64286C22.4609 8.64286 24.2141 6.82429 24.2141 4.57143C24.2141 2.31857 22.4609 0.5 20.2727 0.5C18.0845 0.5 16.3182 2.31857 16.3182 4.57143C16.3182 6.82429 18.0845 8.64286 20.2727 8.64286ZM9.72727 8.64286C11.9155 8.64286 13.6686 6.82429 13.6686 4.57143C13.6686 2.31857 11.9155 0.5 9.72727 0.5C7.53909 0.5 5.77273 2.31857 5.77273 4.57143C5.77273 6.82429 7.53909 8.64286 9.72727 8.64286ZM9.72727 11.3571C6.65591 11.3571 0.5 12.945 0.5 16.1071V19.5H18.9545V16.1071C18.9545 12.945 12.7986 11.3571 9.72727 11.3571ZM20.2727 11.3571C19.8905 11.3571 19.4555 11.3843 18.9941 11.425C20.5232 12.565 21.5909 14.0986 21.5909 16.1071V19.5H29.5V16.1071C29.5 12.945 23.3441 11.3571 20.2727 11.3571Z" fill="#767677"/>
</svg>
