<svg width="32" height="32" viewBox="0 0 32 32" fill="none" xmlns="http://www.w3.org/2000/svg">
<path d="M16 7.5C10.0909 7.5 5.04455 11.0247 3 16C5.04455 20.9753 10.0909 24.5 16 24.5C21.9091 24.5 26.9555 20.9753 29 16C26.9555 11.0247 21.9091 7.5 16 7.5ZM16 21.6667C12.7382 21.6667 10.0909 19.128 10.0909 16C10.0909 12.872 12.7382 10.3333 16 10.3333C19.2618 10.3333 21.9091 12.872 21.9091 16C21.9091 19.128 19.2618 21.6667 16 21.6667ZM16 12.6C14.0382 12.6 12.4545 14.1187 12.4545 16C12.4545 17.8813 14.0382 19.4 16 19.4C17.9618 19.4 19.5455 17.8813 19.5455 16C19.5455 14.1187 17.9618 12.6 16 12.6Z" fill="#767677"/>
</svg>
