<svg width="32" height="32" viewBox="0 0 32 32" fill="none" xmlns="http://www.w3.org/2000/svg">
<path d="M24.5556 9.19048H22.1111C22.1111 5.77333 19.3733 3 16 3C12.6267 3 9.88889 5.77333 9.88889 9.19048H7.44444C6.1 9.19048 5.01222 10.3048 5.01222 11.6667L5 26.5238C5 27.8857 6.1 29 7.44444 29H24.5556C25.9 29 27 27.8857 27 26.5238V11.6667C27 10.3048 25.9 9.19048 24.5556 9.19048ZM16 5.47619C18.0289 5.47619 19.6667 7.13524 19.6667 9.19048H12.3333C12.3333 7.13524 13.9711 5.47619 16 5.47619ZM16 17.8571C12.6267 17.8571 9.88889 15.0838 9.88889 11.6667H12.3333C12.3333 13.7219 13.9711 15.381 16 15.381C18.0289 15.381 19.6667 13.7219 19.6667 11.6667H22.1111C22.1111 15.0838 19.3733 17.8571 16 17.8571Z" fill="#767677"/>
</svg>
