<svg width="323" height="825" viewBox="0 0 323 825" fill="none" xmlns="http://www.w3.org/2000/svg">
<path d="M113.001 89.4839L200.709 6.16956C209.252 -1.94493 223.163 -1.95508 231.717 6.14696L315.575 85.5716C324.129 93.6736 324.139 106.869 315.596 114.983L230.735 195.593C222.193 203.708 208.282 203.718 199.727 195.616L158.36 156.435L163.794 151.274L205.161 190.454C210.715 195.715 219.747 195.708 225.294 190.44L310.155 109.83C315.702 104.561 315.695 95.9938 310.141 90.7332L226.284 11.3086C220.729 6.04807 211.697 6.05465 206.151 11.3233L123.877 89.476C120.876 92.3268 116.007 92.3303 113.001 89.4839Z" fill="url(#paint0_linear_16_5013)"/>
<path d="M0.150191 205.31C0.146309 199.984 2.28037 194.657 6.55158 190.599L90.2932 111.052C98.8357 102.937 112.747 102.927 121.301 111.029L163.79 151.271L158.356 156.433L115.867 116.191C113.176 113.642 109.6 112.24 105.797 112.243C101.995 112.245 98.4204 113.653 95.7329 116.205L11.9913 195.752C9.21888 198.386 7.83251 201.846 7.83503 205.304C7.83756 208.763 9.22722 212.219 12.0052 214.85L95.8627 294.275C101.417 299.535 110.449 299.529 115.995 294.26L158.425 253.956L163.867 259.11L121.437 299.414C112.894 307.53 98.9831 307.54 90.4288 299.437L6.57128 220.012C2.2959 215.961 0.154074 210.635 0.150191 205.31Z" fill="url(#paint1_linear_16_5013)"/>
<path d="M157.953 363.377L163.387 358.215L205.314 397.926C208.006 400.475 211.582 401.877 215.385 401.874C219.187 401.872 222.761 400.465 225.449 397.912L309.191 318.365C311.878 315.812 313.356 312.42 313.354 308.813C313.351 305.206 311.868 301.816 309.177 299.267L225.319 219.842C222.628 217.293 219.052 215.891 215.249 215.894C211.446 215.897 207.872 217.304 205.185 219.857L163.874 259.098L158.433 253.944L199.743 214.703C203.881 210.773 209.386 208.604 215.244 208.6C221.101 208.596 226.608 210.754 230.753 214.681L314.611 294.105C318.754 298.03 321.04 303.252 321.044 308.807C321.048 314.363 318.772 319.586 314.632 323.519L230.89 403.065C222.348 411.182 208.437 411.192 199.882 403.088L157.953 363.377Z" fill="url(#paint2_linear_16_5013)"/>
<path d="M0.302536 412.792C0.298654 407.466 2.43271 402.137 6.70392 398.08L90.4456 318.533C98.988 310.417 112.899 310.407 121.454 318.511L163.382 358.222L157.948 363.384L116.02 323.673C110.466 318.412 101.434 318.419 95.887 323.687L12.1453 403.234C6.59883 408.503 6.60508 417.07 12.1593 422.332L96.0168 501.757C101.571 507.017 110.603 507.011 116.15 501.742L158.579 461.438L164.021 466.591L121.591 506.896C113.049 515.01 99.1371 515.02 90.5829 506.918L6.72536 427.494C2.44824 423.443 0.306418 418.117 0.302536 412.792Z" fill="url(#paint3_linear_16_5013)"/>
<path d="M157.912 570.677L163.346 565.515L205.465 605.407C211.019 610.668 220.051 610.661 225.597 605.393L309.339 525.846C312.027 523.293 313.505 519.901 313.502 516.294C313.5 512.687 312.016 509.297 309.325 506.748L225.468 427.323C219.913 422.063 210.881 422.069 205.335 427.338L164.025 466.579L158.583 461.425L199.893 422.184C208.436 414.07 222.347 414.06 230.901 422.162L314.759 501.586C318.903 505.511 321.188 510.733 321.192 516.288C321.196 521.844 318.92 527.068 314.78 531L231.039 610.546C222.496 618.663 208.585 618.673 200.031 610.569L157.912 570.677Z" fill="url(#paint4_linear_16_5013)"/>
<path d="M211.113 19.7368L210.502 17.2518L215.431 15.9758L216.863 15.9758L216.863 31.8275L213.872 31.8275L213.872 19.0873L211.113 19.7368Z" fill="url(#paint5_linear_16_5013)"/>
<path d="M111.181 141.954L99.6152 141.954L99.6152 141.218C99.8267 138.677 101.307 136.805 104.499 134.665C106.106 133.573 108.094 132.435 108.073 130.719C108.051 129.382 106.973 128.713 105.62 128.713C103.886 128.713 102.617 129.894 102.575 131.678L102.575 131.945L99.7843 131.945L99.7843 131.433C99.8055 128.089 102.174 125.927 105.705 125.927C108.77 125.927 111.118 127.509 111.118 130.63C111.118 133.394 109.151 135.088 106.043 136.805C104.437 137.696 103.506 138.41 102.978 139.235L111.181 139.235L111.181 141.954L111.181 141.954Z" fill="url(#paint6_linear_16_5013)"/>
<path d="M220.292 241.872C220.292 245.267 217.95 247.031 214.479 247.031C210.84 247.031 208.623 245.179 208.623 242.18L208.623 241.916L211.384 241.916L211.384 242.048C211.384 243.459 212.534 244.341 214.374 244.341C216.277 244.341 217.365 243.349 217.365 241.74C217.365 240.086 215.985 239.204 214.333 239.204C213.664 239.204 212.953 239.358 212.283 239.645L211.28 238.234L215.629 233.869L209.334 233.869L209.334 231.179L219.769 231.179L219.769 232.502L215.336 237L215.378 237C218.535 237 220.292 239.38 220.292 241.872Z" fill="url(#paint7_linear_16_5013)"/>
<path d="M110.381 341.945L108.027 341.945L108.027 344.852L105.08 344.852L105.08 341.945L97 341.945L97 340.537L106.204 329L108.027 329L108.027 339.284L110.381 339.284L110.381 341.945ZM105.186 333.964L100.881 339.419L105.186 339.419L105.186 333.964Z" fill="url(#paint8_linear_16_5013)"/>
<path d="M223.258 449.425C223.258 452.953 220.916 454.716 217.403 454.716C213.785 454.716 211.443 452.842 211.443 449.843L211.443 449.601L214.204 449.601L214.204 449.711C214.204 451.122 215.5 452.004 217.341 452.004C219.244 452.004 220.331 451.011 220.331 449.336C220.331 447.462 219.118 446.558 217.194 446.558C216.128 446.558 214.999 446.867 214.497 447.462L212.009 447.44L212.468 438.864L222.276 438.864L222.276 441.554L215.02 441.554L214.831 444.663C215.605 444.288 216.735 444.111 217.738 444.111C220.895 444.111 223.258 446.096 223.258 449.425Z" fill="url(#paint9_linear_16_5013)"/>
<path d="M0.458786 620.292C0.454904 614.966 2.58896 609.639 6.86017 605.58L90.6018 526.033C99.1442 517.917 113.056 517.907 121.61 526.011L163.538 565.722L158.104 570.884L116.176 531.172C110.622 525.912 101.59 525.919 96.0432 531.187L12.3016 610.734C6.75508 616.003 6.76133 624.57 12.3155 629.832L96.173 709.257C101.727 714.517 110.759 714.511 116.306 709.242L158.735 668.938L164.177 674.091L121.747 714.396C113.205 722.512 99.2934 722.522 90.7392 714.418L6.88161 634.994C2.60449 630.941 0.462668 625.617 0.458786 620.292Z" fill="url(#paint10_linear_16_5013)"/>
<path d="M111.349 735.293C114.382 732.447 119.302 732.443 122.339 735.285L205.491 813.095C211.104 818.347 220.232 818.341 225.838 813.08L310.335 733.78C313.065 731.218 314.673 727.76 314.675 724.139C314.678 720.53 313.179 717.136 310.454 714.588L225.708 635.287C220.095 630.034 210.967 630.041 205.362 635.302L163.613 674.482L158.114 669.337L199.863 630.156C208.496 622.054 222.555 622.043 231.2 630.133L315.774 709.274C319.929 713.162 322.385 718.406 322.445 723.91C322.505 729.533 320.199 734.829 315.967 738.801L231.337 818.226C222.704 826.329 208.645 826.34 200 818.249L111.349 735.293Z" fill="url(#paint11_linear_16_5013)"/>
<path d="M111.594 552.704C111.594 556.186 109.195 558.089 105.851 558.089C101.769 558.089 99.6152 555.321 99.6152 550.455C99.6152 544.811 102.302 542.237 105.954 542.237C109.215 542.237 111.102 544.119 111.123 546.303L111.123 546.541L108.313 546.562C108.231 545.546 107.472 544.811 105.892 544.811C103.697 544.811 102.569 546.584 102.467 549.265C103.287 548.465 104.6 547.903 106.159 547.903C109.051 547.903 111.594 549.352 111.594 552.704ZM108.723 552.812C108.723 551.126 107.39 550.174 105.728 550.174C104.067 550.174 102.713 551.147 102.713 552.661C102.713 554.089 103.861 555.516 105.851 555.516C107.759 555.516 108.723 554.305 108.723 552.812Z" fill="url(#paint12_linear_16_5013)"/>
<path d="M221.635 648.011L214.512 662.402L211.185 662.402L217.732 649.293L210.502 649.293L210.502 646.55L221.635 646.55L221.635 648.011Z" fill="url(#paint13_linear_16_5013)"/>
<defs>
<linearGradient id="paint0_linear_16_5013" x1="321.997" y1="100.804" x2="113.01" y2="100.956" gradientUnits="userSpaceOnUse">
<stop stop-color="#EA686B"/>
<stop offset="1" stop-color="#ED8155"/>
</linearGradient>
<linearGradient id="paint1_linear_16_5013" x1="163.829" y1="205.191" x2="0.150192" y2="205.311" gradientUnits="userSpaceOnUse">
<stop stop-color="#EA686B"/>
<stop offset="1" stop-color="#ED8155"/>
</linearGradient>
<linearGradient id="paint2_linear_16_5013" x1="321.044" y1="308.803" x2="157.913" y2="308.921" gradientUnits="userSpaceOnUse">
<stop stop-color="#EA686B"/>
<stop offset="1" stop-color="#ED8155"/>
</linearGradient>
<linearGradient id="paint3_linear_16_5013" x1="163.981" y1="412.672" x2="0.302536" y2="412.791" gradientUnits="userSpaceOnUse">
<stop stop-color="#EA686B"/>
<stop offset="1" stop-color="#ED8155"/>
</linearGradient>
<linearGradient id="paint4_linear_16_5013" x1="321.192" y1="516.289" x2="157.872" y2="516.408" gradientUnits="userSpaceOnUse">
<stop stop-color="#EA686B"/>
<stop offset="1" stop-color="#ED8155"/>
</linearGradient>
<linearGradient id="paint5_linear_16_5013" x1="213.683" y1="15.9758" x2="213.683" y2="31.8275" gradientUnits="userSpaceOnUse">
<stop stop-color="#EA686B"/>
<stop offset="1" stop-color="#ED8155"/>
</linearGradient>
<linearGradient id="paint6_linear_16_5013" x1="105.398" y1="125.927" x2="105.398" y2="141.954" gradientUnits="userSpaceOnUse">
<stop stop-color="#EA686B"/>
<stop offset="1" stop-color="#ED8155"/>
</linearGradient>
<linearGradient id="paint7_linear_16_5013" x1="214.458" y1="231.179" x2="214.458" y2="247.031" gradientUnits="userSpaceOnUse">
<stop stop-color="#EA686B"/>
<stop offset="1" stop-color="#ED8155"/>
</linearGradient>
<linearGradient id="paint8_linear_16_5013" x1="103.691" y1="329" x2="103.691" y2="344.852" gradientUnits="userSpaceOnUse">
<stop stop-color="#EA686B"/>
<stop offset="1" stop-color="#ED8155"/>
</linearGradient>
<linearGradient id="paint9_linear_16_5013" x1="217.351" y1="438.864" x2="217.351" y2="454.716" gradientUnits="userSpaceOnUse">
<stop stop-color="#EA686B"/>
<stop offset="1" stop-color="#ED8155"/>
</linearGradient>
<linearGradient id="paint10_linear_16_5013" x1="164.138" y1="620.172" x2="0.458786" y2="620.292" gradientUnits="userSpaceOnUse">
<stop stop-color="#EA686B"/>
<stop offset="1" stop-color="#ED8155"/>
</linearGradient>
<linearGradient id="paint11_linear_16_5013" x1="322.446" y1="724.113" x2="111.341" y2="724.267" gradientUnits="userSpaceOnUse">
<stop stop-color="#EA686B"/>
<stop offset="1" stop-color="#ED8155"/>
</linearGradient>
<linearGradient id="paint12_linear_16_5013" x1="105.605" y1="542.237" x2="105.605" y2="558.089" gradientUnits="userSpaceOnUse">
<stop stop-color="#EA686B"/>
<stop offset="1" stop-color="#ED8155"/>
</linearGradient>
<linearGradient id="paint13_linear_16_5013" x1="216.069" y1="646.55" x2="216.069" y2="662.402" gradientUnits="userSpaceOnUse">
<stop stop-color="#EA686B"/>
<stop offset="1" stop-color="#ED8155"/>
</linearGradient>
</defs>
</svg>
