<svg width="43" height="38" viewBox="0 0 43 38" fill="none" xmlns="http://www.w3.org/2000/svg">
<path d="M0.5 37.9001H4.7C5.855 37.9001 6.8 36.9551 6.8 35.8001V16.9001C6.8 15.7451 5.855 14.8001 4.7 14.8001H0.5V37.9001ZM42.143 22.9481C42.374 22.4231 42.5 21.8561 42.5 21.2681V19.0001C42.5 16.6901 40.61 14.8001 38.3 14.8001H26.75L28.682 5.0351C28.787 4.5731 28.724 4.0691 28.514 3.6491C28.031 2.7041 27.422 1.8431 26.666 1.0871L25.7 0.100098L12.239 13.5611C11.441 14.3591 11 15.4301 11 16.5431V33.0071C11 35.6951 13.205 37.9001 15.914 37.9001H32.945C34.415 37.9001 35.801 37.1231 36.557 35.8631L42.143 22.9481Z" fill="#E64A19"/>
</svg>
