<svg width="32" height="23" viewBox="0 0 32 23" fill="none" xmlns="http://www.w3.org/2000/svg">
<path d="M13.5103 21.4998C14.6733 20.3368 14.6733 18.4565 13.5103 17.3005L11.2888 15.0789C10.9476 14.7377 11.1913 14.1597 11.6718 14.1597L29.0263 14.1597C30.6699 14.1597 32 12.8295 32 11.186C32 9.54246 30.6699 8.21233 29.0263 8.21233L11.6718 8.21233C11.1913 8.21233 10.9476 7.6343 11.2888 7.29306L13.5103 5.07152C14.6733 3.90851 14.6733 2.02821 13.5103 0.872169C12.3473 -0.290834 10.467 -0.290834 9.30403 0.872169L0.710339 9.46587C-0.236778 10.413 -0.236778 11.959 0.710339 12.9061L9.30403 21.4998C10.467 22.6628 12.3473 22.6628 13.5103 21.4998Z" fill="url(#paint0_linear_84_2119)"/>
<defs>
<linearGradient id="paint0_linear_84_2119" x1="16" y1="22.3721" x2="16" y2="-8.39233e-05" gradientUnits="userSpaceOnUse">
<stop stop-color="#EA686B"/>
<stop offset="1" stop-color="#ED8155"/>
</linearGradient>
</defs>
</svg>
