<svg width="20" height="12" viewBox="0 0 20 12" fill="none" xmlns="http://www.w3.org/2000/svg">
<g clip-path="url(#clip0_6_574)">
<path fill-rule="evenodd" clip-rule="evenodd" d="M0.620915 3.23252L8.72172 11.4244C8.88571 11.5942 9.08167 11.7292 9.29807 11.8213C9.51447 11.9135 9.74693 11.9609 9.98176 11.9609C10.2166 11.9609 10.4491 11.9135 10.6655 11.8213C10.8819 11.7292 11.0778 11.5942 11.2418 11.4244L19.3499 3.23252C20.0804 2.49451 20.2922 1.48345 19.5106 0.76758L19.1892 0.457613C18.561 -0.103272 17.7794 -0.280396 17.2243 0.376431C15.2593 2.36167 13.2871 4.42809 11.2418 6.42071C11.0768 6.58874 10.8805 6.72209 10.6643 6.8131C10.448 6.90411 10.216 6.95096 9.98176 6.95096C9.74749 6.95096 9.51554 6.90411 9.29928 6.8131C9.08301 6.72209 8.88672 6.58874 8.72172 6.42071L2.74656 0.376431C2.19141 -0.265635 1.40251 -0.103272 0.774317 0.457613L0.460213 0.76758C0.30329 0.936482 0.182409 1.13617 0.105081 1.35425C0.0277527 1.57234 -0.0043728 1.80415 0.0106973 2.03531C0.0257673 2.26646 0.0877149 2.49202 0.192688 2.69797C0.297661 2.90393 0.44342 3.08587 0.620915 3.23252Z" fill="#E64A19"/>
</g>
<defs>
<clipPath id="clip0_6_574">
<rect width="12" height="20" fill="white" transform="matrix(0 -1 1 0 0 12)"/>
</clipPath>
</defs>
</svg>
