<svg width="45" height="45" viewBox="0 0 45 45" fill="none" xmlns="http://www.w3.org/2000/svg">
<g clip-path="url(#clip0_16_5352)">
<path d="M22.4996 15.3941C18.5297 15.3941 15.3108 18.5762 15.3108 22.4999C15.3108 26.4244 18.5297 29.6052 22.4996 29.6052C26.4703 29.6052 29.6898 26.4244 29.6898 22.4999C29.6898 18.5762 26.4703 15.3941 22.4996 15.3941ZM22.4996 27.1125C19.9227 27.1125 17.8328 25.0475 17.8328 22.4999C17.8328 19.9524 19.9227 17.8874 22.4996 17.8874C25.0771 17.8874 27.167 19.9524 27.167 22.4999C27.167 25.0474 25.0771 27.1125 22.4996 27.1125ZM31.6533 15.1138C31.6533 16.03 30.9009 16.7736 29.9733 16.7736C29.0457 16.7736 28.2933 16.03 28.2933 15.1138C28.2933 14.1971 29.0456 13.4533 29.9733 13.4533C30.9009 13.4533 31.6533 14.1971 31.6533 15.1138ZM35.7651 13.4363C35.4071 12.5259 34.9284 11.7546 34.1506 10.9853C32.5814 9.43316 30.4345 8.84313 28.2726 8.74638C26.7791 8.67817 26.3023 8.66309 22.4996 8.66309C18.6982 8.66309 18.2215 8.67817 16.728 8.74638C14.5609 8.84335 12.4164 9.43705 10.8501 10.9852C9.27766 12.5393 8.68348 14.6548 8.58405 16.7954C8.51602 18.2715 8.5 18.7422 8.5 22.4999C8.5 26.2577 8.51602 26.7291 8.58405 28.2058C8.68391 30.3539 9.27705 32.4613 10.85 34.0148C12.4227 35.568 14.5623 36.1562 16.728 36.2542C18.2215 36.3217 18.6982 36.3369 22.4996 36.3369C26.3024 36.3369 26.7791 36.3216 28.2726 36.2542C30.4433 36.1559 32.5809 35.5673 34.1505 34.0148C35.7191 32.4634 36.3176 30.3417 36.4157 28.2058C36.484 26.7291 36.5 26.2576 36.5 22.4999C36.5 18.7421 36.484 18.2715 36.4157 16.7953C36.3481 15.3221 36.1113 14.3167 35.7651 13.4363ZM33.8957 28.0914C33.8265 29.5943 33.4733 31.1576 32.3669 32.2524C31.2459 33.3618 29.6877 33.6947 28.1576 33.7636C26.681 33.8297 26.2388 33.8442 22.4996 33.8442C18.7618 33.8442 18.3196 33.8297 16.8429 33.7636C15.3089 33.6945 13.7532 33.3561 12.6331 32.2526C11.5163 31.1523 11.1726 29.5933 11.1042 28.0913C11.0373 26.6326 11.0226 26.195 11.0226 22.4999C11.0226 18.8055 11.0373 18.3679 11.1042 16.9083C11.1724 15.4123 11.5325 13.8376 12.6329 12.7481C13.7486 11.6435 15.3205 11.3056 16.843 11.2369C18.3196 11.1703 18.7618 11.1563 22.4996 11.1563C26.2382 11.1563 26.681 11.1703 28.1577 11.2369C29.6908 11.306 31.2491 11.6429 32.3667 12.7479C33.4849 13.8535 33.8263 15.4013 33.8957 16.9084C33.9633 18.3679 33.978 18.8055 33.978 22.4999C33.978 26.195 33.9633 26.6326 33.8957 28.0914Z" fill="#757575"/>
</g>
<defs>
<clipPath id="clip0_16_5352">
<rect width="28" height="27.6744" fill="white" transform="translate(8.5 8.6626)"/>
</clipPath>
</defs>
</svg>
