<svg width="24" height="24" viewBox="0 0 24 24" fill="none" xmlns="http://www.w3.org/2000/svg">
<path fill-rule="evenodd" clip-rule="evenodd" d="M11.9981 2.6958C10.6102 2.6958 9.47964 3.82465 9.47964 5.21427H9.48131V6.31788H14.5182V5.21427C14.5182 3.82634 13.3877 2.6958 11.9981 2.6958ZM14.5193 6.31789H16.2141V5.21427C16.2141 2.89095 14.3231 1 11.9998 1C9.67647 1 7.78552 2.89095 7.78552 5.21427V6.31789H9.48073V9.99212C9.48073 10.4598 9.10051 10.84 8.63282 10.84C8.16513 10.84 7.78493 10.4598 7.78493 9.99212V6.31788H6.33306C5.45488 6.31788 4.71464 6.97231 4.60361 7.84208L2.75472 21.0317C2.75303 21.0367 2.75303 21.0417 2.75303 21.0468C2.69247 21.5414 2.84893 22.0394 3.17867 22.4129C3.50841 22.7863 3.98451 23 4.48249 23H19.5159C20.0139 23 20.49 22.7863 20.8214 22.4129C21.1511 22.0394 21.3059 21.5414 21.247 21.0468C21.247 21.0441 21.2465 21.0413 21.2461 21.0386C21.2457 21.0363 21.2454 21.034 21.2454 21.0317L19.3965 7.84208C19.2871 6.97231 18.5452 6.31788 17.667 6.31788H16.2151V9.99212C16.2151 10.4598 15.8349 10.84 15.3672 10.84C14.8996 10.84 14.5193 10.4598 14.5193 9.99212V6.31789Z" fill="#484848"/>
</svg>
