<svg width="16" height="16" viewBox="0 0 16 16" fill="none" xmlns="http://www.w3.org/2000/svg">
<g clip-path="url(#clip0_281_836)">
<path fill-rule="evenodd" clip-rule="evenodd" d="M2.36879 6.36464L7.22927 11.2798C7.32767 11.3817 7.44524 11.4626 7.57508 11.5179C7.70492 11.5732 7.8444 11.6017 7.9853 11.6017C8.1262 11.6017 8.26568 11.5732 8.39551 11.5179C8.52535 11.4626 8.64293 11.3817 8.74133 11.2798L13.6062 6.36464C14.0445 5.92183 14.1716 5.31519 13.7026 4.88567L13.5098 4.69969C13.1329 4.36316 12.6639 4.25689 12.3308 4.65098C11.1518 5.84212 9.9685 7.08198 8.74133 8.27755C8.64233 8.37836 8.52455 8.45838 8.39479 8.51298C8.26503 8.56759 8.12586 8.5957 7.9853 8.5957C7.84474 8.5957 7.70556 8.56759 7.57581 8.51298C7.44605 8.45838 7.32827 8.37836 7.22927 8.27755L3.64417 4.65098C3.31108 4.26574 2.83775 4.36316 2.46083 4.69969L2.27237 4.88567C2.17821 4.98701 2.10569 5.10683 2.05929 5.23768C2.01289 5.36853 1.99362 5.50762 2.00266 5.64631C2.0117 5.785 2.04887 5.92034 2.11185 6.04391C2.17484 6.16748 2.26229 6.27665 2.36879 6.36464Z" fill="#484848"/>
</g>
<defs>
<clipPath id="clip0_281_836">
<rect width="16" height="16" fill="white"/>
</clipPath>
</defs>
</svg>
