<svg width="56" height="57" viewBox="0 0 56 57" fill="none" xmlns="http://www.w3.org/2000/svg">
<path d="M42 42.9368C49.732 35.2098 49.732 22.6818 42 14.9548C34.268 7.22779 21.732 7.22779 14 14.9548C6.26801 22.6818 6.26801 35.2098 14 42.9368C21.732 50.6638 34.268 50.6638 42 42.9368Z" fill="#757575"/>
<path d="M27.9982 16.1621C20.9534 16.1621 15.2432 21.8694 15.2432 28.9097C15.2432 31.2529 15.8791 33.4471 16.9829 35.3341L15.4057 41.7297L21.9707 40.145C23.766 41.1089 25.8181 41.6566 27.9982 41.6566C35.0431 41.6566 40.7533 35.9493 40.7533 28.909C40.7533 21.8694 35.0431 16.1621 27.9982 16.1621Z" fill="white"/>
<path d="M27.9951 39.93C26.1779 39.93 24.3763 39.4787 22.785 38.6238L22.0576 38.2329L17.5981 39.5743L18.9087 35.2098L18.4711 34.4618C17.4876 32.7808 16.9678 30.8615 16.9678 28.9091C16.9678 22.8327 21.9148 17.8889 27.9951 17.8889C34.0754 17.8889 39.0224 22.8327 39.0224 28.9091C39.0224 34.9862 34.0754 39.93 27.9951 39.93Z" fill="#757575"/>
<path d="M32.7291 31.2484L33.7351 32.4864C34.2972 33.1459 33.8181 33.6423 33.2511 33.9874C32.4977 34.4465 31.7196 34.997 30.4456 34.9689C28.4688 34.9253 27.1764 33.7561 25.7969 32.5075C24.5503 31.3799 21.1995 28.3476 21.896 24.8296C22.0184 24.2109 22.247 23.6766 22.5024 23.2316C22.8352 22.6523 23.3663 22.3366 24.1134 22.9961L25.5844 24.1322C26.4779 24.8437 26.537 25.2008 26.2584 25.8553C26.174 26.0529 26.1493 26.0452 26.0297 26.2223C25.9228 26.3805 25.614 26.6491 25.4571 26.7573L25.1166 27.0793C25.1004 27.0906 25.2883 26.8769 25.2749 26.8916C24.7325 27.4829 24.9534 28.1845 25.5113 28.7765L27.7132 31.1127C28.302 31.7377 29.2743 31.8017 29.9398 31.2589L30.0805 31.1443C31.0365 29.9421 31.7653 30.0982 32.7291 31.2484Z" fill="white"/>
</svg>
