<svg width="41" height="41" viewBox="0 0 41 41" fill="none" xmlns="http://www.w3.org/2000/svg">
<g clip-path="url(#clip0_130_5423)">
<path d="M36.4056 12.2574C36.4296 12.6129 36.4296 12.9701 36.4296 13.3289C36.4296 24.2832 28.1736 36.9151 13.0792 36.9151V36.9086C8.61984 36.9147 4.25305 35.6242 0.5 33.1916C1.14836 33.2699 1.80063 33.3098 2.45359 33.3112C6.14969 33.315 9.73953 32.0626 12.6456 29.7556C9.13453 29.689 6.05352 27.3757 4.97844 23.9988C6.2082 24.2381 7.47586 24.1894 8.68406 23.8566C4.85484 23.0753 2.10109 19.6766 2.10008 15.7306C2.10008 15.695 2.10008 15.6595 2.10008 15.6256C3.24133 16.2682 4.51883 16.6241 5.82492 16.6631C2.21836 14.2305 1.10578 9.38489 3.28398 5.59717C7.45117 10.7759 13.5991 13.924 20.1976 14.2582C19.5361 11.3794 20.4404 8.36248 22.5717 6.33786C25.8766 3.1985 31.0752 3.35964 34.1831 6.69787C36.0209 6.33178 37.7834 5.65131 39.3943 4.68571C38.7817 6.60538 37.4995 8.2348 35.7863 9.27078C37.4133 9.07658 39.0021 8.63695 40.4999 7.96657C39.3982 9.63095 38.0117 11.0839 36.4056 12.2574Z" fill="#757575"/>
</g>
<defs>
<clipPath id="clip0_130_5423">
<rect width="40" height="40.404" fill="white" transform="translate(0.5 0.297974)"/>
</clipPath>
</defs>
</svg>
