<svg width="38" height="46" viewBox="0 0 38 46" fill="none" xmlns="http://www.w3.org/2000/svg">
<path d="M37.9748 41.5634C37.9748 41.553 37.9714 41.5427 37.9714 41.5323L34.1775 14.4682C33.9532 12.6834 32.4308 11.3406 30.6288 11.3406H27.6497V18.8799C27.6497 19.8396 26.8695 20.6197 25.9098 20.6197C24.9502 20.6197 24.17 19.8396 24.17 18.8799V11.3406H13.8311V18.8799C13.8311 19.8396 13.0509 20.6197 12.0912 20.6197C11.1316 20.6197 10.3514 19.8396 10.3514 18.8799V11.3406H7.37226C5.57028 11.3406 4.05137 12.6834 3.82353 14.4682L0.0297149 41.5323C0.0262629 41.5427 0.0262595 41.553 0.0262595 41.5634C-0.0980148 42.5783 0.223037 43.6001 0.899642 44.3665C1.57625 45.1328 2.55318 45.5712 3.57499 45.5712H34.4226C35.4444 45.5712 36.4214 45.1328 37.1014 44.3665C37.778 43.6001 38.0956 42.5783 37.9748 41.5634Z" fill="url(#paint0_linear_378_6829)"/>
<path d="M13.8312 9.07613C13.8312 6.22473 16.151 3.90839 18.9989 3.90839C21.8503 3.90839 24.1701 6.22818 24.1701 9.07613V11.3407H27.6498V9.07613C27.6498 4.30883 23.7697 0.428711 19.0024 0.428711C14.2351 0.428711 10.355 4.30883 10.355 9.07613V11.3407H13.8346V9.07613H13.8312Z" fill="url(#paint1_linear_378_6829)"/>
<defs>
<linearGradient id="paint0_linear_378_6829" x1="19" y1="11.3406" x2="19" y2="45.5712" gradientUnits="userSpaceOnUse">
<stop stop-color="#EA686B"/>
<stop offset="1" stop-color="#ED8155"/>
</linearGradient>
<linearGradient id="paint1_linear_378_6829" x1="19.0024" y1="0.428711" x2="19.0024" y2="11.3407" gradientUnits="userSpaceOnUse">
<stop stop-color="#EA686B"/>
<stop offset="1" stop-color="#ED8155"/>
</linearGradient>
</defs>
</svg>
