<svg width="248" height="32" viewBox="0 0 248 32" fill="none" xmlns="http://www.w3.org/2000/svg">
<path d="M16 0L20.2321 10.1751L31.2169 11.0557L22.8476 18.2249L25.4046 28.9443L16 23.2L6.59544 28.9443L9.15239 18.2249L0.783095 11.0557L11.7679 10.1751L16 0Z" fill="#E64A19"/>
<path d="M70 0L74.2321 10.1751L85.2169 11.0557L76.8476 18.2249L79.4046 28.9443L70 23.2L60.5954 28.9443L63.1524 18.2249L54.7831 11.0557L65.7679 10.1751L70 0Z" fill="#E64A19"/>
<path d="M124 0L128.232 10.1751L139.217 11.0557L130.848 18.2249L133.405 28.9443L124 23.2L114.595 28.9443L117.152 18.2249L108.783 11.0557L119.768 10.1751L124 0Z" fill="#E64A19"/>
<path d="M178 0L182.232 10.1751L193.217 11.0557L184.848 18.2249L187.405 28.9443L178 23.2L168.595 28.9443L171.152 18.2249L162.783 11.0557L173.768 10.1751L178 0Z" fill="#E64A19"/>
<path d="M232 0L236.232 10.1751L247.217 11.0557L238.848 18.2249L241.405 28.9443L232 23.2L222.595 28.9443L225.152 18.2249L216.783 11.0557L227.768 10.1751L232 0Z" fill="#E64A19"/>
</svg>
