<svg width="11" height="7" viewBox="0 0 11 7" fill="none" xmlns="http://www.w3.org/2000/svg">
<g clip-path="url(#clip0_16_4679)">
<path fill-rule="evenodd" clip-rule="evenodd" d="M0.341516 2.11626L4.79696 6.2122C4.88715 6.29711 4.99493 6.36459 5.11395 6.41066C5.23297 6.45673 5.36083 6.48047 5.48998 6.48047C5.61914 6.48047 5.74699 6.45673 5.86601 6.41066C5.98503 6.36459 6.09281 6.29711 6.18301 6.2122L10.6425 2.11626C11.0442 1.74726 11.1607 1.24172 10.7309 0.88379L10.5541 0.728806C10.2086 0.448364 9.7787 0.359802 9.47336 0.688216C8.39265 1.68084 7.30792 2.71405 6.18301 3.71036C6.09226 3.79437 5.9843 3.86105 5.86535 3.90655C5.74641 3.95205 5.61883 3.97548 5.48998 3.97548C5.36113 3.97548 5.23356 3.95205 5.11461 3.90655C4.99567 3.86105 4.88771 3.79437 4.79696 3.71036L1.51062 0.688216C1.20529 0.367182 0.771394 0.448364 0.425886 0.728806L0.253129 0.88379C0.166822 0.968241 0.100337 1.06809 0.0578068 1.17713C0.0152762 1.28617 -0.00239283 1.40208 0.0058957 1.51765C0.0141842 1.63323 0.0482554 1.74601 0.105991 1.84899C0.163726 1.95196 0.243893 2.04294 0.341516 2.11626Z" fill="#E64A19"/>
</g>
<defs>
<clipPath id="clip0_16_4679">
<rect width="6" height="11" fill="white" transform="matrix(0 -1 1 0 0 6.5)"/>
</clipPath>
</defs>
</svg>
