<svg width="24" height="24" viewBox="0 0 24 24" fill="none" xmlns="http://www.w3.org/2000/svg">
<g clip-path="url(#clip0_16_4792)">
<path d="M11.9997 5.77002C8.59687 5.77002 5.83781 8.49751 5.83781 11.8607C5.83781 15.2246 8.59687 17.9509 11.9997 17.9509C15.4031 17.9509 18.1627 15.2246 18.1627 11.8607C18.1627 8.49751 15.4031 5.77002 11.9997 5.77002ZM11.9997 15.8143C9.79092 15.8143 7.99955 14.0443 7.99955 11.8607C7.99955 9.67711 9.79087 7.90713 11.9997 7.90713C14.2089 7.90713 16.0003 9.67711 16.0003 11.8607C16.0003 14.0443 14.2089 15.8143 11.9997 15.8143ZM19.8457 5.5297C19.8457 6.31509 19.2008 6.95245 18.4057 6.95245C17.6106 6.95245 16.9657 6.31509 16.9657 5.5297C16.9657 4.74399 17.6105 4.10645 18.4057 4.10645C19.2008 4.10645 19.8457 4.74399 19.8457 5.5297ZM23.37 4.09185C23.0632 3.31157 22.653 2.65044 21.9862 1.99098C20.6412 0.660612 18.801 0.154874 16.9479 0.0719438C15.6678 0.0134754 15.2591 0.000549316 11.9997 0.000549316C8.74134 0.000549316 8.33269 0.0134754 7.05253 0.0719438C5.19502 0.15506 3.35691 0.663948 2.01436 1.99093C0.666562 3.32306 0.157266 5.13627 0.0720469 6.97108C0.0137344 8.23635 0 8.63979 0 11.8607C0 15.0816 0.0137344 15.4857 0.0720469 16.7515C0.157641 18.5927 0.666047 20.399 2.01427 21.7306C3.3623 23.0619 5.19628 23.5661 7.05253 23.6501C8.33269 23.7079 8.74134 23.721 11.9997 23.721C15.2592 23.721 15.6678 23.7079 16.948 23.6501C18.8085 23.5659 20.6408 23.0613 21.9862 21.7306C23.3306 20.4008 23.8436 18.5822 23.9278 16.7514C23.9863 15.4857 24 15.0816 24 11.8606C24 8.63969 23.9863 8.2363 23.9278 6.97103C23.8698 5.70831 23.6669 4.84648 23.37 4.09185ZM21.7677 16.6534C21.7085 17.9416 21.4057 19.2815 20.4573 20.22C19.4965 21.1709 18.1609 21.4562 16.8494 21.5153C15.5837 21.572 15.2047 21.5844 11.9997 21.5844C8.79586 21.5844 8.41683 21.5719 7.15102 21.5153C5.83617 21.456 4.50272 21.166 3.54267 20.2201C2.58539 19.2771 2.29078 17.9408 2.23214 16.6533C2.17481 15.403 2.16225 15.0279 2.16225 11.8606C2.16225 8.69409 2.17486 8.319 2.23214 7.0679C2.29059 5.78563 2.59927 4.43585 3.54248 3.50203C4.49883 2.55523 5.84616 2.26553 7.15111 2.20669C8.41683 2.14956 8.79586 2.13761 11.9997 2.13761C15.2042 2.13761 15.5837 2.14956 16.8495 2.20669C18.1635 2.26594 19.4992 2.55467 20.4572 3.50184C21.4156 4.44948 21.7083 5.77613 21.7677 7.068C21.8257 8.319 21.8383 8.69409 21.8383 11.8607C21.8383 15.0279 21.8257 15.403 21.7677 16.6534Z" fill="url(#paint0_linear_16_4792)"/>
</g>
<defs>
<linearGradient id="paint0_linear_16_4792" x1="2.01431" y1="21.7306" x2="21.7526" y2="1.76011" gradientUnits="userSpaceOnUse">
<stop stop-color="#FDD91D"/>
<stop offset="0.05" stop-color="#FDD91D"/>
<stop offset="0.4972" stop-color="#EC1C24"/>
<stop offset="0.95" stop-color="#A43A94"/>
<stop offset="1" stop-color="#A43A94"/>
</linearGradient>
<clipPath id="clip0_16_4792">
<rect width="24" height="23.7209" fill="white"/>
</clipPath>
</defs>
</svg>
