<svg width="25" height="45" viewBox="0 0 25 45" fill="none" xmlns="http://www.w3.org/2000/svg">
<g clip-path="url(#clip0_6_905)">
<path fill-rule="evenodd" clip-rule="evenodd" d="M18.2657 1.39724L1.19932 19.624C0.845529 19.993 0.564374 20.434 0.372408 20.9208C0.180441 21.4077 0.081543 21.9308 0.081543 22.4592C0.081543 22.9875 0.180441 23.5106 0.372408 23.9975C0.564374 24.4844 0.845529 24.9253 1.19932 25.2943L18.2657 43.5375C19.8033 45.181 21.9096 45.6577 23.401 43.8991L24.0468 43.1759C25.2153 41.7625 25.5843 40.0039 24.2159 38.7548C20.08 34.3337 15.775 29.8962 11.6237 25.2943C11.2736 24.923 10.9958 24.4813 10.8062 23.9948C10.6166 23.5082 10.519 22.9863 10.519 22.4592C10.519 21.932 10.6166 21.4101 10.8062 20.9236C10.9958 20.437 11.2736 19.9953 11.6237 19.624L24.2159 6.17994C25.5536 4.93085 25.2153 3.15584 24.0468 1.7424L23.401 1.03566C23.0492 0.682586 22.6331 0.410604 22.1788 0.236615C21.7245 0.0626266 21.2415 -0.00965569 20.7599 0.0242519C20.2784 0.0581595 19.8084 0.197542 19.3794 0.433731C18.9503 0.669921 18.5713 0.997878 18.2657 1.39724Z" fill="url(#paint0_linear_6_905)"/>
</g>
<defs>
<linearGradient id="paint0_linear_6_905" x1="12.5874" y1="0.0161133" x2="12.5874" y2="45.0132" gradientUnits="userSpaceOnUse">
<stop stop-color="#EA686B"/>
<stop offset="1" stop-color="#ED8155"/>
</linearGradient>
<clipPath id="clip0_6_905">
<rect width="25" height="45" fill="white"/>
</clipPath>
</defs>
</svg>
