<svg width="42" height="50" viewBox="0 0 42 50" fill="none" xmlns="http://www.w3.org/2000/svg">
<g clip-path="url(#clip0_230_1127)">
<path d="M35.3026 39.4399H29.1636V29.8259C29.1636 27.5334 29.1226 24.5822 25.9707 24.5822C22.7732 24.5822 22.2841 27.08 22.2841 29.659V39.4392H16.1451V19.669H22.0386V22.3708H22.1211C23.3228 20.3162 25.5572 19.089 27.9359 19.1772C34.1581 19.1772 35.3054 23.2699 35.3054 28.5942L35.3026 39.4399ZM9.21812 16.9666C7.25056 16.967 5.65529 15.3722 5.65491 13.4047C5.65452 11.4371 7.24932 9.84187 9.21678 9.84149C11.1843 9.8411 12.7796 11.4359 12.78 13.4034C12.7804 15.3709 11.1857 16.9663 9.21812 16.9666ZM12.2876 39.44H6.14223V19.669H12.2876V39.44ZM38.3632 4.14055H3.05733C1.38875 4.12169 0.0203848 5.45828 0 7.12687V42.5791C0.0197148 44.2486 1.38789 45.5865 3.05733 45.5687H38.3632C40.036 45.5897 41.4095 44.2518 41.4327 42.5791V7.12438C41.4088 5.45245 40.0351 4.11595 38.3632 4.13796V4.14055Z" fill="#0066C5"/>
</g>
<defs>
<clipPath id="clip0_230_1127">
<rect width="42" height="49" fill="white" transform="translate(0 0.5)"/>
</clipPath>
</defs>
</svg>
