<svg width="42" height="44" viewBox="0 0 42 44" fill="none" xmlns="http://www.w3.org/2000/svg">
<g clip-path="url(#clip0_230_1112)">
<path d="M17.7689 23.9352C17.2019 23.7563 16.6026 23.6524 15.9779 23.6524C12.6312 23.6524 9.90814 26.3962 9.90814 29.7687C9.90814 32.117 11.2303 34.1575 13.1623 35.182C14.0047 35.6287 14.9617 35.8847 15.9779 35.8847C19.2475 35.8847 21.9146 33.264 22.036 29.9988L22.0476 0.839844H29.2682C29.2682 1.4706 29.3286 2.08698 29.4388 2.686C29.9481 5.45825 31.581 7.83655 33.8435 9.32281C35.4189 10.3579 37.2973 10.9621 39.314 10.9621V12.583V18.2378C35.57 18.2378 32.1003 17.0309 29.2682 14.9826V29.7686C29.2682 37.153 23.3063 43.1604 15.9779 43.1604C13.1458 43.1604 10.52 42.2604 8.36127 40.7334C4.93393 38.3088 2.6875 34.2994 2.6875 29.7686C2.6875 22.3843 8.64945 16.3765 15.9779 16.3765C16.5861 16.3765 17.1822 16.427 17.7689 16.5074V23.9352Z" fill="black"/>
</g>
<defs>
<clipPath id="clip0_230_1112">
<rect width="42" height="42.3206" fill="white" transform="translate(0 0.839844)"/>
</clipPath>
</defs>
</svg>
