<svg width="42" height="44" viewBox="0 0 42 44" fill="none" xmlns="http://www.w3.org/2000/svg">
<path d="M37.7009 13.3453C37.7261 13.7186 37.7261 14.0937 37.7261 14.4704C37.7261 25.9724 29.0573 39.236 13.2082 39.236V39.2292C8.52584 39.2355 3.9407 37.8805 0 35.3262C0.680777 35.4085 1.36566 35.4504 2.05127 35.4518C5.93217 35.4558 9.70151 34.1408 12.7529 31.7185C9.06626 31.6486 5.83119 29.2196 4.70236 25.6739C5.99361 25.9251 7.32465 25.874 8.59327 25.5246C4.57259 24.7042 1.68115 21.1355 1.68008 16.9922C1.68008 16.9549 1.68008 16.9176 1.68008 16.8819C2.87839 17.5567 4.21977 17.9304 5.59117 17.9714C1.80428 15.4171 0.63607 10.3292 2.92318 6.35211C7.29873 11.7898 13.754 15.0953 20.6825 15.4462C19.9879 12.4235 20.9374 9.25569 23.1753 7.12983C26.6454 3.8335 32.1039 4.0027 35.3673 7.50784C37.297 7.12345 39.1475 6.40895 40.839 5.39508C40.1958 7.41073 38.8494 9.12162 37.0506 10.2094C38.7589 10.0055 40.4272 9.54387 41.9999 8.83998C40.8431 10.5876 39.3873 12.1132 37.7009 13.3453Z" fill="#1D9BF0"/>
</svg>
