<svg width="49" height="50" viewBox="0 0 49 50" fill="none" xmlns="http://www.w3.org/2000/svg">
<g clip-path="url(#clip0_230_1097)">
<path d="M47.9761 13.1295C47.4126 11.0076 45.7522 9.33653 43.644 8.7693C39.8227 7.73877 24.5 7.73877 24.5 7.73877C24.5 7.73877 9.17726 7.73877 5.35603 8.7693C3.24778 9.33644 1.58743 11.0076 1.02393 13.1295C0 16.9757 0 25.0002 0 25.0002C0 25.0002 0 33.0247 1.02393 36.8708C1.58743 38.9927 3.24778 40.6638 5.35603 41.231C9.17726 42.2616 24.5 42.2616 24.5 42.2616C24.5 42.2616 39.8227 42.2616 43.644 41.231C45.7522 40.6638 47.4126 38.9927 47.9761 36.8708C49 33.0247 49 25.0002 49 25.0002C49 25.0002 49 16.9757 47.9761 13.1295Z" fill="#FF0000"/>
<path d="M19.4883 32.2857L32.2951 25.0002L19.4883 17.7144V32.2857Z" fill="white"/>
</g>
<defs>
<clipPath id="clip0_230_1097">
<rect width="49" height="49" fill="white" transform="translate(0 0.5)"/>
</clipPath>
</defs>
</svg>
