<svg width="44" height="44" viewBox="0 0 44 44" fill="none" xmlns="http://www.w3.org/2000/svg">
<path d="M35.2631 13.0679H31.4736C31.4736 8.58559 27.2295 4.94775 22.0001 4.94775C16.7707 4.94775 12.5266 8.58559 12.5266 13.0679H8.73717C6.65299 13.0679 4.9667 14.5296 4.9667 16.316L4.94775 35.8044C4.94775 37.5908 6.65299 39.0525 8.73717 39.0525H35.2631C37.3472 39.0525 39.0525 37.5908 39.0525 35.8044V16.316C39.0525 14.5296 37.3472 13.0679 35.2631 13.0679ZM22.0001 8.19582C25.1453 8.19582 27.6842 10.372 27.6842 13.0679H16.316C16.316 10.372 18.8549 8.19582 22.0001 8.19582ZM22.0001 24.4362C16.7707 24.4362 12.5266 20.7983 12.5266 16.316H16.316C16.316 19.0119 18.8549 21.1881 22.0001 21.1881C25.1453 21.1881 27.6842 19.0119 27.6842 16.316H31.4736C31.4736 20.7983 27.2295 24.4362 22.0001 24.4362Z" fill="#E64A19"/>
</svg>
