<svg width="40" height="50" viewBox="0 0 40 50" fill="none" xmlns="http://www.w3.org/2000/svg">
<path d="M15.1335 17.231L11.8842 12.4895C11.7212 12.2501 11.7823 11.9242 12.0217 11.7587L13.9621 10.4294C14.2015 10.2664 14.5274 10.3275 14.693 10.5669L16.3456 12.981L25.3092 3.93332C25.5893 3.65067 26.0452 3.64811 26.3304 3.92823L27.7233 5.30842C28.006 5.58853 28.0085 6.04436 27.7284 6.32956L16.7785 17.3838C16.3023 17.8549 15.5129 17.7836 15.1335 17.231Z" fill="#E64A19"/>
<path d="M29.8447 15.2241V12.2218L26.3586 11.3509C26.2491 10.8697 26.1065 10.3986 25.9333 9.94528L21.808 14.1113C21.6094 17.162 19.0731 19.5761 15.9715 19.5761C12.74 19.5761 10.1197 16.9557 10.1197 13.7243C10.1197 10.4928 12.74 7.87245 15.9715 7.87245C17.0206 7.87245 18.0036 8.15001 18.8541 8.63129L22.2995 5.15535C22.0219 4.94909 21.7367 4.75556 21.4388 4.5773L21.6858 0.991856L18.8312 0.0649414L16.9238 3.11053C16.6106 3.08252 16.2923 3.06469 15.9715 3.06469C15.6506 3.06469 15.3323 3.08252 15.0191 3.11053L13.1118 0.0649414L10.2572 0.991856L10.5042 4.5773C9.95924 4.9058 9.44484 5.28268 8.9661 5.69775L5.62767 4.35321L3.86296 6.78256L6.17007 9.5353C5.92052 10.1159 5.72444 10.722 5.58183 11.3484L2.0957 12.2193V15.2216L5.58183 16.0925C5.72444 16.7189 5.92052 17.3275 6.17007 17.9056L3.86296 20.6583L5.62767 23.0877L8.9661 21.7431C9.44229 22.1607 9.95669 22.5376 10.5042 22.8636L10.2572 26.449L13.1118 27.3759L15.0191 24.3303C15.3323 24.3583 15.6506 24.3762 15.9715 24.3762C16.2923 24.3762 16.6106 24.3583 16.9238 24.3303L18.8312 27.3759L21.6858 26.449L21.4388 22.8636C21.9862 22.5351 22.4981 22.1582 22.9768 21.7431L26.3153 23.0877L28.08 20.6583L25.7729 17.9056C26.0224 17.325 26.2185 16.7189 26.3611 16.0925L29.8447 15.2241Z" fill="#E64A19"/>
<path d="M30.9574 49.6065L28.0468 46.6959C27.6088 46.2579 27.6088 45.5449 28.0468 45.1069L35.1718 37.9818C35.6098 37.5438 36.3228 37.5438 36.7608 37.9818L39.6714 40.8924C40.1094 41.3304 40.1094 42.0435 39.6714 42.4814L32.5464 49.6065C32.1084 50.0445 31.3954 50.0445 30.9574 49.6065Z" fill="#E64A19"/>
<path d="M30.5322 34.0604L28.2454 31.5928C27.1021 30.3578 25.4927 29.6549 23.8095 29.6549H13.1881C12.5031 29.6549 11.9989 30.3094 12.1848 30.9689C12.4242 31.8169 13.1448 32.7718 15.1616 32.833H20.8479C20.8479 32.833 21.3496 33.4696 19.8064 33.8439H10.0865C9.31237 33.8439 8.5688 33.5409 8.01621 32.9985L4.02588 29.082C4.02588 29.082 2.62785 27.8495 0.659425 28.5854C-0.0179385 28.8401 -0.214017 29.7084 0.262175 30.2534L7.86088 38.9318C8.75724 39.9555 10.0534 40.5437 11.4132 40.5437H22.1899C23.3766 40.5437 24.5123 41.0148 25.3526 41.8526L26.2999 42.7999C26.7354 43.2353 27.4382 43.2353 27.8737 42.7999L32.7858 37.8877C33.2213 37.4523 33.2213 36.7494 32.7858 36.314L30.5322 34.0604Z" fill="#E64A19"/>
</svg>
