<svg width="49" height="48" viewBox="0 0 49 48" fill="none" xmlns="http://www.w3.org/2000/svg">
<path d="M22.8385 38.7903L32.4939 29.9303C33.1399 29.3386 33.5066 28.5229 33.5066 27.6753V11.6986C33.5066 9.93935 31.9352 8.5 30.0146 8.5H14.3181C12.9213 8.5 11.6641 9.26765 11.1229 10.4351L5.43094 22.6056C3.94684 25.7722 6.47853 29.2906 10.2324 29.2906H20.0973L18.4386 36.6153C18.264 37.4149 18.5259 38.2306 19.1545 38.8063C20.1846 39.7339 21.8258 39.7339 22.8385 38.7903ZM40.508 8.5C38.5874 8.5 37.016 9.93935 37.016 11.6986V24.4928C37.016 26.252 38.5874 27.6913 40.508 27.6913C42.4286 27.6913 44 26.252 44 24.4928V11.6986C44 9.93935 42.4286 8.5 40.508 8.5Z" fill="#E64A19"/>
</svg>
