<svg width="43" height="42" viewBox="0 0 43 42" fill="none" xmlns="http://www.w3.org/2000/svg">
<path d="M33.9444 5.5H9.05556C7.08222 5.5 5.5 7.05 5.5 8.94444V33.0556C5.5 34.95 7.08222 36.5 9.05556 36.5H33.9444C35.9 36.5 37.5 34.95 37.5 33.0556V8.94444C37.5 7.05 35.9178 5.5 33.9444 5.5ZM33.9444 33.0556H9.05556V12.3889H33.9444V33.0556ZM24.1667 22.7222C24.1667 24.1517 22.9756 25.3056 21.5 25.3056C20.0244 25.3056 18.8333 24.1517 18.8333 22.7222C18.8333 21.2928 20.0244 20.1389 21.5 20.1389C22.9756 20.1389 24.1667 21.2928 24.1667 22.7222ZM21.5 15.8333C16.6467 15.8333 12.5044 18.6922 10.8333 22.7222C12.5044 26.7522 16.6467 29.6111 21.5 29.6111C26.3533 29.6111 30.4956 26.7522 32.1667 22.7222C30.4956 18.6922 26.3533 15.8333 21.5 15.8333ZM21.5 27.0278C19.0467 27.0278 17.0556 25.0989 17.0556 22.7222C17.0556 20.3456 19.0467 18.4167 21.5 18.4167C23.9533 18.4167 25.9444 20.3456 25.9444 22.7222C25.9444 25.0989 23.9533 27.0278 21.5 27.0278Z" fill="#E64A19"/>
</svg>
