<svg width="1425" height="529" viewBox="0 0 1425 529" fill="none" xmlns="http://www.w3.org/2000/svg">
<path d="M154.474 342.782L10.5158 198.824C-3.50525 184.803 -3.50525 161.985 10.5158 147.964L147.964 10.5158C161.985 -3.50525 184.803 -3.50525 198.824 10.5158L338.11 149.802C352.131 163.823 352.131 186.64 338.11 200.661L270.305 268.465L261.387 259.547L329.191 191.742C338.295 182.639 338.295 167.824 329.191 158.72L189.905 19.4346C180.801 10.3309 165.987 10.3309 156.883 19.4346L19.4346 156.883C10.3309 165.987 10.3309 180.801 19.4346 189.905L154.474 324.945C159.4 329.871 159.4 337.857 154.474 342.782Z" fill="url(#paint0_linear_16_3689)"/>
<path d="M354.618 528.016C345.409 528.016 336.2 524.51 329.187 517.499L191.738 380.05C177.717 366.029 177.717 343.212 191.738 329.191L261.38 259.549L270.299 268.468L200.657 338.11C196.246 342.521 193.817 348.385 193.817 354.622C193.817 360.859 196.246 366.723 200.657 371.134L338.106 508.583C342.656 513.133 348.637 515.412 354.618 515.412C360.599 515.412 366.577 513.136 371.131 508.583L508.579 371.134C517.683 362.031 517.683 347.216 508.579 338.113L438.938 268.471L447.856 259.552L517.498 329.194C531.522 343.215 531.522 366.032 517.498 380.053L380.049 517.502C373.039 524.51 363.827 528.016 354.618 528.016Z" fill="url(#paint1_linear_16_3689)"/>
<path d="M628.161 269.384L619.242 260.465L687.965 191.742C692.376 187.331 694.805 181.467 694.805 175.23C694.805 168.993 692.376 163.129 687.965 158.718L550.516 21.269C546.105 16.8579 540.241 14.4291 534.004 14.4291C527.767 14.4291 521.903 16.8579 517.491 21.269L380.043 158.718C375.632 163.129 373.203 168.993 373.203 175.23C373.203 181.467 375.632 187.331 380.043 191.742L447.847 259.547L438.928 268.465L371.124 200.661C364.333 193.87 360.59 184.837 360.59 175.23C360.59 165.623 364.33 156.593 371.124 149.799L508.573 12.3502C515.364 5.55865 524.397 1.81592 534.004 1.81592C543.611 1.81592 552.641 5.5558 559.435 12.3502L696.884 149.799C710.908 163.82 710.908 186.637 696.884 200.658L628.161 269.384Z" fill="url(#paint2_linear_16_3689)"/>
<path d="M713.402 528.016C704.193 528.016 694.981 524.51 687.97 517.499L550.522 380.05C536.498 366.029 536.498 343.212 550.522 329.191L619.245 260.468L628.163 269.387L559.441 338.11C550.337 347.213 550.337 362.028 559.441 371.132L696.889 508.58C705.993 517.684 720.807 517.684 729.914 508.58L867.362 371.132C876.466 362.028 876.466 347.213 867.362 338.11L797.721 268.468L806.64 259.549L876.281 329.191C890.302 343.212 890.302 366.029 876.281 380.05L738.833 517.499C731.822 524.51 722.61 528.016 713.402 528.016Z" fill="url(#paint3_linear_16_3689)"/>
<path d="M986.63 269.697L977.711 260.778L1046.75 191.742C1055.85 182.639 1055.85 167.824 1046.75 158.72L909.299 21.2719C904.887 16.8609 899.023 14.4321 892.786 14.4321C886.549 14.4321 880.685 16.8609 876.274 21.2719L738.825 158.72C729.722 167.824 729.722 182.639 738.825 191.742L806.629 259.547L797.711 268.465L729.906 200.661C715.885 186.64 715.885 163.823 729.906 149.802L867.355 12.3531C874.146 5.56157 883.179 1.81885 892.786 1.81885C902.393 1.81885 911.423 5.55872 918.217 12.3531L1055.67 149.802C1069.69 163.823 1069.69 186.64 1055.67 200.661L986.63 269.697Z" fill="url(#paint4_linear_16_3689)"/>
<path d="M165.057 37.1688L164 33.0928L172.523 31H175V57H169.827V36.1035L165.057 37.1688Z" fill="url(#paint5_linear_16_3689)"/>
<path d="M359.999 231.287H340V230.081C340.366 225.913 342.925 222.842 348.445 219.332C351.224 217.541 354.661 215.676 354.625 212.86C354.588 210.667 352.723 209.57 350.383 209.57C347.385 209.57 345.191 211.507 345.119 214.433V214.872H340.292V214.031C340.329 208.547 344.424 205 350.53 205C355.831 205 359.89 207.596 359.89 212.715C359.89 217.249 356.49 220.027 351.116 222.842C348.337 224.304 346.728 225.475 345.814 226.828H360V231.287H359.999Z" fill="url(#paint6_linear_16_3689)"/>
<path d="M544.178 48.5382C544.178 54.1069 540.128 57 534.125 57C527.833 57 524 53.9627 524 49.0441V48.6108H528.774V48.8275C528.774 51.1421 530.763 52.5882 533.945 52.5882C537.236 52.5882 539.117 50.9608 539.117 48.3216C539.117 45.6098 536.73 44.1627 533.873 44.1627C532.717 44.1627 531.487 44.4157 530.329 44.8863L528.594 42.5716L536.116 35.4118H525.229V31H543.274V33.1696L535.608 40.547H535.68C541.14 40.547 544.178 44.452 544.178 48.5382Z" fill="url(#paint7_linear_16_3689)"/>
<path d="M723.139 226.233H719.069V231H713.971V226.233H700V223.922L715.915 205H719.069V221.868H723.139V226.233ZM714.155 213.141L706.711 222.089H714.155V213.141Z" fill="url(#paint8_linear_16_3689)"/>
<path d="M903.431 48.3219C903.431 54.1079 899.381 57 893.306 57C887.05 57 883 53.9266 883 49.0082V48.6101H887.773V48.7905C887.773 51.1052 890.015 52.5512 893.198 52.5512C896.489 52.5512 898.369 50.9238 898.369 48.1759C898.369 45.1024 896.272 43.6201 892.945 43.6201C891.101 43.6201 889.148 44.126 888.28 45.1024L883.977 45.0662L884.772 31H901.732V35.4116H889.184L888.859 40.5104C890.197 39.8957 892.15 39.6065 893.885 39.6065C899.345 39.6065 903.431 42.8613 903.431 48.3219Z" fill="url(#paint9_linear_16_3689)"/>
<path d="M1072.21 528.016C1063.01 528.016 1053.8 524.51 1046.78 517.499L909.334 380.05C895.31 366.029 895.31 343.212 909.334 329.191L978.057 260.468L986.976 269.387L918.253 338.11C909.149 347.213 909.149 362.028 918.253 371.132L1055.7 508.58C1064.81 517.684 1079.62 517.684 1088.73 508.58L1226.18 371.132C1235.28 362.028 1235.28 347.213 1226.18 338.11L1156.53 268.468L1165.45 259.549L1235.09 329.191C1249.12 343.212 1249.12 366.029 1235.09 380.05L1097.65 517.499C1090.63 524.51 1081.42 528.016 1072.21 528.016Z" fill="url(#paint10_linear_16_3689)"/>
<path d="M1270.7 344.443C1265.78 339.517 1265.78 331.531 1270.7 326.605L1405.56 191.742C1414.67 182.638 1414.67 167.824 1405.56 158.72L1268.33 21.4878C1263.9 17.054 1257.91 14.4403 1251.64 14.4318C1245.39 14.4233 1239.51 16.8521 1235.09 21.2717L1097.65 158.72C1088.54 167.824 1088.54 182.638 1097.65 191.742L1165.45 259.546L1156.53 268.465L1088.73 200.661C1074.71 186.64 1074.71 163.822 1088.73 149.801L1225.9 12.6316C1232.64 5.89124 1241.72 1.91245 1251.25 1.82144C1260.99 1.73043 1270.16 5.47885 1277.03 12.3528L1414.48 149.801C1428.51 163.822 1428.51 186.64 1414.48 200.661L1270.7 344.443Z" fill="url(#paint11_linear_16_3689)"/>
<path d="M1083.71 222.168C1083.71 227.879 1079.56 231 1073.78 231C1066.72 231 1063 226.46 1063 218.479C1063 209.221 1067.65 205 1073.96 205C1079.6 205 1082.86 208.086 1082.9 211.669V212.059L1078.04 212.094C1077.9 210.427 1076.59 209.221 1073.85 209.221C1070.06 209.221 1068.11 212.129 1067.93 216.528C1069.35 215.215 1071.62 214.293 1074.32 214.293C1079.32 214.294 1083.71 216.67 1083.71 222.168ZM1078.75 222.345C1078.75 219.579 1076.44 218.018 1073.57 218.018C1070.7 218.018 1068.36 219.614 1068.36 222.097C1068.36 224.439 1070.34 226.779 1073.78 226.779C1077.08 226.779 1078.75 224.793 1078.75 222.345Z" fill="url(#paint12_linear_16_3689)"/>
<path d="M1261.25 33.3965L1248.93 57H1243.18L1254.5 35.4992H1242V31H1261.25V33.3965Z" fill="url(#paint13_linear_16_3689)"/>
<defs>
<linearGradient id="paint0_linear_16_3689" x1="174.313" y1="0" x2="174.313" y2="342.782" gradientUnits="userSpaceOnUse">
<stop stop-color="#EA686B"/>
<stop offset="1" stop-color="#ED8155"/>
</linearGradient>
<linearGradient id="paint1_linear_16_3689" x1="354.619" y1="259.549" x2="354.619" y2="528.016" gradientUnits="userSpaceOnUse">
<stop stop-color="#EA686B"/>
<stop offset="1" stop-color="#ED8155"/>
</linearGradient>
<linearGradient id="paint2_linear_16_3689" x1="533.996" y1="1.81592" x2="533.996" y2="269.384" gradientUnits="userSpaceOnUse">
<stop stop-color="#EA686B"/>
<stop offset="1" stop-color="#ED8155"/>
</linearGradient>
<linearGradient id="paint3_linear_16_3689" x1="713.401" y1="259.549" x2="713.401" y2="528.016" gradientUnits="userSpaceOnUse">
<stop stop-color="#EA686B"/>
<stop offset="1" stop-color="#ED8155"/>
</linearGradient>
<linearGradient id="paint4_linear_16_3689" x1="892.787" y1="1.81885" x2="892.787" y2="269.697" gradientUnits="userSpaceOnUse">
<stop stop-color="#EA686B"/>
<stop offset="1" stop-color="#ED8155"/>
</linearGradient>
<linearGradient id="paint5_linear_16_3689" x1="169.5" y1="31" x2="169.5" y2="57" gradientUnits="userSpaceOnUse">
<stop stop-color="#EA686B"/>
<stop offset="1" stop-color="#ED8155"/>
</linearGradient>
<linearGradient id="paint6_linear_16_3689" x1="350" y1="205" x2="350" y2="231.287" gradientUnits="userSpaceOnUse">
<stop stop-color="#EA686B"/>
<stop offset="1" stop-color="#ED8155"/>
</linearGradient>
<linearGradient id="paint7_linear_16_3689" x1="534.089" y1="31" x2="534.089" y2="57" gradientUnits="userSpaceOnUse">
<stop stop-color="#EA686B"/>
<stop offset="1" stop-color="#ED8155"/>
</linearGradient>
<linearGradient id="paint8_linear_16_3689" x1="711.569" y1="205" x2="711.569" y2="231" gradientUnits="userSpaceOnUse">
<stop stop-color="#EA686B"/>
<stop offset="1" stop-color="#ED8155"/>
</linearGradient>
<linearGradient id="paint9_linear_16_3689" x1="893.215" y1="31" x2="893.215" y2="57" gradientUnits="userSpaceOnUse">
<stop stop-color="#EA686B"/>
<stop offset="1" stop-color="#ED8155"/>
</linearGradient>
<linearGradient id="paint10_linear_16_3689" x1="1072.21" y1="259.549" x2="1072.21" y2="528.016" gradientUnits="userSpaceOnUse">
<stop stop-color="#EA686B"/>
<stop offset="1" stop-color="#ED8155"/>
</linearGradient>
<linearGradient id="paint11_linear_16_3689" x1="1251.61" y1="1.81982" x2="1251.61" y2="344.443" gradientUnits="userSpaceOnUse">
<stop stop-color="#EA686B"/>
<stop offset="1" stop-color="#ED8155"/>
</linearGradient>
<linearGradient id="paint12_linear_16_3689" x1="1073.36" y1="205" x2="1073.36" y2="231" gradientUnits="userSpaceOnUse">
<stop stop-color="#EA686B"/>
<stop offset="1" stop-color="#ED8155"/>
</linearGradient>
<linearGradient id="paint13_linear_16_3689" x1="1251.63" y1="31" x2="1251.63" y2="57" gradientUnits="userSpaceOnUse">
<stop stop-color="#EA686B"/>
<stop offset="1" stop-color="#ED8155"/>
</linearGradient>
</defs>
</svg>
