<svg width="348" height="270" viewBox="0 0 348 270" fill="none" xmlns="http://www.w3.org/2000/svg">
<path d="M173.618 269.016C164.409 269.016 155.2 265.51 148.187 258.499L10.7384 121.05C-3.2826 107.029 -3.2826 84.2119 10.7384 70.1909L80.3799 0.549438L89.2987 9.46827L19.6572 79.1097C15.2462 83.5208 12.8174 89.3852 12.8174 95.6221C12.8174 101.859 15.2462 107.723 19.6572 112.134L157.106 249.583C161.656 254.133 167.637 256.411 173.618 256.411C179.599 256.411 185.577 254.136 190.131 249.583L327.579 112.134C336.683 103.031 336.683 88.2163 327.579 79.1126L257.938 9.47112L266.856 0.552285L336.498 70.1937C350.522 84.2148 350.522 107.032 336.498 121.053L199.049 258.502C192.039 265.51 182.827 269.016 173.618 269.016Z" fill="url(#paint0_linear_16_3691)"/>
<defs>
<linearGradient id="paint0_linear_16_3691" x1="173.619" y1="0.549438" x2="173.619" y2="269.016" gradientUnits="userSpaceOnUse">
<stop stop-color="#EA686B"/>
<stop offset="1" stop-color="#ED8155"/>
</linearGradient>
</defs>
</svg>
