<svg width="348" height="269" viewBox="0 0 348 269" fill="none" xmlns="http://www.w3.org/2000/svg">
<path d="M267.63 268.697L258.711 259.778L327.747 190.742C336.851 181.639 336.851 166.824 327.747 157.72L190.299 20.2719C185.887 15.8609 180.023 13.4321 173.786 13.4321C167.549 13.4321 161.685 15.8609 157.274 20.2719L19.8253 157.72C10.7216 166.824 10.7216 181.639 19.8253 190.742L87.6295 258.547L78.7107 267.465L10.9064 199.661C-3.11463 185.64 -3.11463 162.823 10.9064 148.802L148.355 11.3531C155.146 4.56157 164.179 0.818848 173.786 0.818848C183.393 0.818848 192.423 4.55872 199.217 11.3531L336.666 148.802C350.69 162.823 350.69 185.64 336.666 199.661L267.63 268.697Z" fill="url(#paint0_linear_16_3694)"/>
<defs>
<linearGradient id="paint0_linear_16_3694" x1="173.787" y1="0.818848" x2="173.787" y2="268.697" gradientUnits="userSpaceOnUse">
<stop stop-color="#EA686B"/>
<stop offset="1" stop-color="#ED8155"/>
</linearGradient>
</defs>
</svg>
