<svg width="347" height="344" viewBox="0 0 347 344" fill="none" xmlns="http://www.w3.org/2000/svg">
<path d="M192.701 343.443C187.775 338.517 187.775 330.531 192.701 325.605L327.564 190.742C336.668 181.638 336.668 166.824 327.564 157.72L190.332 20.4878C185.898 16.054 179.912 13.4403 173.641 13.4318C167.389 13.4233 161.511 15.8521 157.094 20.2717L19.6455 157.72C10.5418 166.824 10.5418 181.638 19.6455 190.742L87.4498 258.546L78.5308 267.465L10.7267 199.661C-3.29432 185.64 -3.29432 162.822 10.7267 148.801L147.897 11.6316C154.637 4.89124 163.721 0.912452 173.254 0.821443C182.992 0.730435 192.161 4.47885 199.035 11.3528L336.483 148.801C350.507 162.822 350.507 185.64 336.483 199.661L192.701 343.443Z" fill="url(#paint0_linear_16_3706)"/>
<defs>
<linearGradient id="paint0_linear_16_3706" x1="173.606" y1="0.819824" x2="173.606" y2="343.443" gradientUnits="userSpaceOnUse">
<stop stop-color="#EA686B"/>
<stop offset="1" stop-color="#ED8155"/>
</linearGradient>
</defs>
</svg>
