<svg width="349" height="343" viewBox="0 0 349 343" fill="none" xmlns="http://www.w3.org/2000/svg">
<path d="M154.474 342.782L10.5158 198.824C-3.50525 184.803 -3.50525 161.985 10.5158 147.964L147.964 10.5158C161.985 -3.50525 184.803 -3.50525 198.824 10.5158L338.11 149.802C352.131 163.823 352.131 186.64 338.11 200.661L270.305 268.465L261.387 259.547L329.191 191.742C338.295 182.639 338.295 167.824 329.191 158.72L189.905 19.4346C180.801 10.3309 165.987 10.3309 156.883 19.4346L19.4346 156.883C10.3309 165.987 10.3309 180.801 19.4346 189.905L154.474 324.945C159.4 329.871 159.4 337.857 154.474 342.782Z" fill="url(#paint0_linear_16_3690)"/>
<defs>
<linearGradient id="paint0_linear_16_3690" x1="174.313" y1="0" x2="174.313" y2="342.782" gradientUnits="userSpaceOnUse">
<stop stop-color="#EA686B"/>
<stop offset="1" stop-color="#ED8155"/>
</linearGradient>
</defs>
</svg>
