<svg width="49" height="49" viewBox="0 0 49 49" fill="none" xmlns="http://www.w3.org/2000/svg">
<g clip-path="url(#clip0_6_669)">
<path d="M47.9761 12.6294C47.4126 10.5075 45.7522 8.83641 43.644 8.26918C39.8227 7.23865 24.5 7.23865 24.5 7.23865C24.5 7.23865 9.17726 7.23865 5.35603 8.26918C3.24778 8.83632 1.58743 10.5075 1.02393 12.6294C0 16.4755 0 24.5 0 24.5C0 24.5 0 32.5246 1.02393 36.3707C1.58743 38.4926 3.24778 40.1637 5.35603 40.7309C9.17726 41.7614 24.5 41.7614 24.5 41.7614C24.5 41.7614 39.8227 41.7614 43.644 40.7309C45.7522 40.1637 47.4126 38.4926 47.9761 36.3707C49 32.5246 49 24.5 49 24.5C49 24.5 49 16.4755 47.9761 12.6294Z" fill="#FF0000"/>
<path d="M19.4886 31.7857L32.2954 24.5002L19.4886 17.2144V31.7857Z" fill="white"/>
</g>
<defs>
<clipPath id="clip0_6_669">
<rect width="49" height="49" fill="white"/>
</clipPath>
</defs>
</svg>
