<svg width="32" height="32" viewBox="0 0 32 32" fill="none" xmlns="http://www.w3.org/2000/svg">
<path d="M23.3333 20.9639C22.4044 20.9639 21.5733 21.3253 20.9378 21.8916L12.2233 16.8916C12.2844 16.6145 12.3333 16.3373 12.3333 16.0482C12.3333 15.759 12.2844 15.4819 12.2233 15.2048L20.84 10.253C21.5 10.8554 22.3678 11.2289 23.3333 11.2289C25.3622 11.2289 27 9.61446 27 7.61446C27 5.61446 25.3622 4 23.3333 4C21.3044 4 19.6667 5.61446 19.6667 7.61446C19.6667 7.90361 19.7156 8.18072 19.7767 8.45783L11.16 13.4096C10.5 12.8072 9.63222 12.4337 8.66667 12.4337C6.63778 12.4337 5 14.0482 5 16.0482C5 18.0482 6.63778 19.6627 8.66667 19.6627C9.63222 19.6627 10.5 19.2892 11.16 18.6867L19.8622 23.6988C19.8011 23.9518 19.7644 24.2169 19.7644 24.4819C19.7644 26.4217 21.3656 28 23.3333 28C25.3011 28 26.9022 26.4217 26.9022 24.4819C26.9022 22.5422 25.3011 20.9639 23.3333 20.9639Z" fill="#767677"/>
</svg>
