<svg width="32" height="32" viewBox="0 0 32 32" fill="none" xmlns="http://www.w3.org/2000/svg">
<path d="M24.5556 5H7.44444C6.08778 5 5 6.1 5 7.44444V24.5556C5 25.9 6.08778 27 7.44444 27H24.5556C25.9 27 27 25.9 27 24.5556V7.44444C27 6.1 25.9122 5 24.5556 5ZM24.5556 24.5556H7.44444V9.88889H24.5556V24.5556ZM17.8333 17.2222C17.8333 18.2367 17.0144 19.0556 16 19.0556C14.9856 19.0556 14.1667 18.2367 14.1667 17.2222C14.1667 16.2078 14.9856 15.3889 16 15.3889C17.0144 15.3889 17.8333 16.2078 17.8333 17.2222ZM16 12.3333C12.6633 12.3333 9.81556 14.3622 8.66667 17.2222C9.81556 20.0822 12.6633 22.1111 16 22.1111C19.3367 22.1111 22.1844 20.0822 23.3333 17.2222C22.1844 14.3622 19.3367 12.3333 16 12.3333ZM16 20.2778C14.3133 20.2778 12.9444 18.9089 12.9444 17.2222C12.9444 15.5356 14.3133 14.1667 16 14.1667C17.6867 14.1667 19.0556 15.5356 19.0556 17.2222C19.0556 18.9089 17.6867 20.2778 16 20.2778Z" fill="#767677"/>
</svg>
