<svg width="207" height="49" viewBox="0 0 207 49" fill="none" xmlns="http://www.w3.org/2000/svg">
<g clip-path="url(#clip0_6_668)">
<path d="M47.9761 12.6294C47.4126 10.5075 45.7522 8.83641 43.644 8.26918C39.8227 7.23865 24.5 7.23865 24.5 7.23865C24.5 7.23865 9.17726 7.23865 5.35603 8.26918C3.24778 8.83632 1.58743 10.5075 1.02393 12.6294C0 16.4755 0 24.5 0 24.5C0 24.5 0 32.5246 1.02393 36.3707C1.58743 38.4926 3.24778 40.1637 5.35603 40.7309C9.17726 41.7614 24.5 41.7614 24.5 41.7614C24.5 41.7614 39.8227 41.7614 43.644 40.7309C45.7522 40.1637 47.4126 38.4926 47.9761 36.3707C49 32.5246 49 24.5 49 24.5C49 24.5 49 16.4755 47.9761 12.6294Z" fill="#FF0000"/>
<path d="M19.4886 31.7857L32.2954 24.5002L19.4886 17.2144V31.7857Z" fill="white"/>
</g>
<path d="M61.7926 11.3182H67.1491L73.554 22.9006H73.8097L80.2145 11.3182H85.571L76.0469 27.733V37.5H71.3168V27.733L61.7926 11.3182ZM93.6346 37.8835C91.717 37.8835 90.055 37.4616 88.6488 36.6179C87.2425 35.7741 86.1516 34.5937 85.3761 33.0767C84.609 31.5597 84.2255 29.7869 84.2255 27.7585C84.2255 25.7301 84.609 23.9531 85.3761 22.4276C86.1516 20.902 87.2425 19.7173 88.6488 18.8736C90.055 18.0298 91.717 17.608 93.6346 17.608C95.5522 17.608 97.2141 18.0298 98.6204 18.8736C100.027 19.7173 101.113 20.902 101.88 22.4276C102.656 23.9531 103.044 25.7301 103.044 27.7585C103.044 29.7869 102.656 31.5597 101.88 33.0767C101.113 34.5937 100.027 35.7741 98.6204 36.6179C97.2141 37.4616 95.5522 37.8835 93.6346 37.8835ZM93.6602 34.1761C94.6999 34.1761 95.5692 33.8906 96.2681 33.3196C96.967 32.7401 97.4869 31.9645 97.8278 30.9929C98.1772 30.0213 98.3519 28.9389 98.3519 27.7457C98.3519 26.544 98.1772 25.4574 97.8278 24.4858C97.4869 23.5057 96.967 22.7259 96.2681 22.1463C95.5692 21.5668 94.6999 21.277 93.6602 21.277C92.5948 21.277 91.7085 21.5668 91.0011 22.1463C90.3022 22.7259 89.7781 23.5057 89.4286 24.4858C89.0877 25.4574 88.9173 26.544 88.9173 27.7457C88.9173 28.9389 89.0877 30.0213 89.4286 30.9929C89.7781 31.9645 90.3022 32.7401 91.0011 33.3196C91.7085 33.8906 92.5948 34.1761 93.6602 34.1761ZM119.487 29.2415V17.8636H124.115V37.5H119.628V34.0099H119.423C118.98 35.1094 118.251 36.0085 117.237 36.7074C116.232 37.4062 114.991 37.7557 113.517 37.7557C112.23 37.7557 111.092 37.4702 110.104 36.8991C109.124 36.3196 108.357 35.4801 107.803 34.3807C107.249 33.2727 106.972 31.9347 106.972 30.3665V17.8636H111.599V29.6506C111.599 30.8949 111.94 31.8835 112.622 32.6165C113.304 33.3494 114.199 33.7159 115.307 33.7159C115.989 33.7159 116.649 33.5497 117.288 33.2173C117.928 32.8849 118.452 32.3906 118.861 31.7344C119.278 31.0696 119.487 30.2386 119.487 29.2415ZM138.679 17.8636V21.4432H127.391V17.8636H138.679ZM130.178 13.1591H134.806V31.5938C134.806 32.2159 134.9 32.6932 135.087 33.0256C135.283 33.3494 135.539 33.571 135.854 33.6903C136.169 33.8097 136.519 33.8693 136.902 33.8693C137.192 33.8693 137.456 33.848 137.695 33.8054C137.942 33.7628 138.13 33.7244 138.257 33.6903L139.037 37.3082C138.79 37.3935 138.436 37.4872 137.976 37.5895C137.525 37.6918 136.971 37.7514 136.314 37.7685C135.155 37.8026 134.111 37.6278 133.182 37.2443C132.253 36.8523 131.516 36.2472 130.971 35.429C130.434 34.6108 130.169 33.5881 130.178 32.3608V13.1591ZM155.065 29.2415V17.8636H159.693V37.5H155.206V34.0099H155.001C154.558 35.1094 153.83 36.0085 152.815 36.7074C151.81 37.4062 150.57 37.7557 149.095 37.7557C147.808 37.7557 146.67 37.4702 145.682 36.8991C144.702 36.3196 143.935 35.4801 143.381 34.3807C142.827 33.2727 142.55 31.9347 142.55 30.3665V17.8636H147.178V29.6506C147.178 30.8949 147.518 31.8835 148.2 32.6165C148.882 33.3494 149.777 33.7159 150.885 33.7159C151.567 33.7159 152.227 33.5497 152.866 33.2173C153.506 32.8849 154.03 32.3906 154.439 31.7344C154.857 31.0696 155.065 30.2386 155.065 29.2415ZM164.657 37.5V11.3182H169.284V21.1108H169.476C169.715 20.6335 170.051 20.1264 170.486 19.5895C170.921 19.044 171.509 18.5795 172.25 18.196C172.992 17.804 173.938 17.608 175.088 17.608C176.605 17.608 177.973 17.9957 179.192 18.7713C180.419 19.5384 181.391 20.6761 182.107 22.1847C182.831 23.6847 183.194 25.5256 183.194 27.7074C183.194 29.8636 182.84 31.696 182.132 33.2045C181.425 34.7131 180.462 35.8636 179.243 36.6562C178.025 37.4489 176.644 37.8452 175.101 37.8452C173.976 37.8452 173.043 37.6577 172.301 37.2827C171.56 36.9077 170.963 36.456 170.512 35.9276C170.069 35.3906 169.723 34.8835 169.476 34.4062H169.208V37.5H164.657ZM169.195 27.6818C169.195 28.9517 169.374 30.0639 169.732 31.0185C170.098 31.973 170.623 32.7187 171.304 33.2557C171.995 33.7841 172.83 34.0483 173.81 34.0483C174.833 34.0483 175.689 33.7756 176.38 33.2301C177.07 32.6761 177.59 31.9219 177.939 30.9673C178.297 30.0043 178.476 28.9091 178.476 27.6818C178.476 26.4631 178.301 25.3807 177.952 24.4347C177.603 23.4886 177.083 22.7472 176.392 22.2102C175.702 21.6733 174.841 21.4048 173.81 21.4048C172.821 21.4048 171.982 21.6648 171.292 22.1847C170.601 22.7045 170.077 23.4332 169.719 24.3707C169.37 25.3082 169.195 26.4119 169.195 27.6818ZM195.821 37.8835C193.852 37.8835 192.152 37.4744 190.72 36.6562C189.297 35.8295 188.202 34.6619 187.435 33.1534C186.668 31.6364 186.284 29.8509 186.284 27.7969C186.284 25.777 186.668 24.0043 187.435 22.4787C188.21 20.9446 189.293 19.7514 190.682 18.8991C192.071 18.0384 193.703 17.608 195.578 17.608C196.788 17.608 197.93 17.804 199.004 18.196C200.087 18.5795 201.041 19.1761 201.868 19.9858C202.703 20.7955 203.359 21.8267 203.837 23.0795C204.314 24.3239 204.553 25.8068 204.553 27.5284V28.9474H188.457V25.8281H200.116C200.108 24.9418 199.916 24.1534 199.541 23.4631C199.166 22.7642 198.642 22.2145 197.969 21.8139C197.304 21.4134 196.528 21.2131 195.642 21.2131C194.696 21.2131 193.865 21.4432 193.149 21.9034C192.433 22.3551 191.875 22.9517 191.474 23.6932C191.082 24.4261 190.882 25.2315 190.874 26.1094V28.8324C190.874 29.9744 191.082 30.9545 191.5 31.7727C191.918 32.5824 192.501 33.2045 193.251 33.6392C194.001 34.0653 194.879 34.2784 195.885 34.2784C196.558 34.2784 197.168 34.1847 197.713 33.9972C198.259 33.8011 198.732 33.5156 199.132 33.1406C199.533 32.7656 199.835 32.3011 200.04 31.7472L204.361 32.233C204.088 33.375 203.568 34.3722 202.801 35.2244C202.043 36.0682 201.071 36.7244 199.886 37.1932C198.702 37.6534 197.347 37.8835 195.821 37.8835Z" fill="#1F1340"/>
<defs>
<clipPath id="clip0_6_668">
<rect width="49" height="49" fill="white"/>
</clipPath>
</defs>
</svg>
