<svg width="41" height="41" viewBox="0 0 41 41" fill="none" xmlns="http://www.w3.org/2000/svg">
<g clip-path="url(#clip0_130_5415)">
<path d="M40.5 20.5C40.5 30.4828 33.1859 38.757 23.625 40.257V26.2813H28.2852L29.1719 20.5H23.625V16.7484C23.625 15.1664 24.4 13.625 26.8844 13.625H29.4062V8.70313C29.4062 8.70313 27.1172 8.3125 24.9289 8.3125C20.3609 8.3125 17.375 11.0813 17.375 16.0938V20.5H12.2969V26.2813H17.375V40.257C7.81406 38.757 0.5 30.4828 0.5 20.5C0.5 9.45469 9.45469 0.5 20.5 0.5C31.5453 0.5 40.5 9.45469 40.5 20.5Z" fill="#757575"/>
<path d="M28.2852 26.2812L29.1719 20.5H23.625V16.7484C23.625 15.1667 24.3998 13.625 26.8843 13.625H29.4062V8.70312C29.4062 8.70312 27.1175 8.3125 24.9293 8.3125C20.3609 8.3125 17.375 11.0813 17.375 16.0938V20.5H12.2969V26.2812H17.375V40.257C18.3933 40.4167 19.4369 40.5 20.5 40.5C21.5631 40.5 22.6067 40.4167 23.625 40.257V26.2812H28.2852Z" fill="white"/>
</g>
<defs>
<clipPath id="clip0_130_5415">
<rect width="40" height="40" fill="white" transform="translate(0.5 0.5)"/>
</clipPath>
</defs>
</svg>
