<svg width="56" height="56" viewBox="0 0 56 56" fill="none" xmlns="http://www.w3.org/2000/svg">
<path d="M42 41.9729C49.732 34.2459 49.732 21.718 42 13.9909C34.268 6.26392 21.732 6.26393 14 13.9909C6.26801 21.718 6.26802 34.2459 14 41.9729C21.732 49.6999 34.268 49.6999 42 41.9729Z" fill="#757575"/>
<path d="M34.6605 38.5785L25.1647 31.2803L22.0806 29.697L15.5894 27.8536C15.0161 27.5098 15.0913 26.6577 15.7153 26.4194L39.713 17.3255C40.3194 17.0942 40.9349 17.6419 40.7752 18.2704L35.848 38.0892C35.7164 38.6088 35.1205 38.8541 34.6605 38.5785Z" fill="#FFFFFD"/>
<path d="M35.2179 22.107L25.1649 31.2803V36.5715L24.9729 36.7437C24.7808 36.9026 24.4895 36.8154 24.4178 36.5778L22.0801 29.6971L35.1299 21.9903C35.2052 21.9453 35.2819 22.048 35.2179 22.107Z" fill="#D1DEE8"/>
<path d="M25.1641 31.2805V36.5709L28.3312 33.7145L25.1641 31.2805Z" fill="#B1C5D6"/>
</svg>
