<svg width="41" height="41" viewBox="0 0 41 41" fill="none" xmlns="http://www.w3.org/2000/svg">
<g clip-path="url(#clip0_130_5419)">
<path d="M20.4995 10.3488C14.8281 10.3488 10.2297 14.8946 10.2297 20.4999C10.2297 26.1064 14.8281 30.6503 20.4995 30.6503C26.1719 30.6503 30.7711 26.1064 30.7711 20.4999C30.7711 14.8946 26.1719 10.3488 20.4995 10.3488ZM20.4995 27.0893C16.8182 27.0893 13.8326 24.1393 13.8326 20.4999C13.8326 16.8606 16.8181 13.9107 20.4995 13.9107C24.1816 13.9107 27.1671 16.8606 27.1671 20.4999C27.1671 24.1392 24.1816 27.0893 20.4995 27.0893ZM33.5761 9.94829C33.5761 11.2573 32.5013 12.3195 31.1761 12.3195C29.8509 12.3195 28.7761 11.2573 28.7761 9.94829C28.7761 8.63877 29.8509 7.5762 31.1761 7.5762C32.5013 7.5762 33.5761 8.63877 33.5761 9.94829ZM39.4501 7.55187C38.9388 6.25139 38.2549 5.14951 37.1437 4.05041C34.902 1.83314 31.835 0.990241 28.7466 0.852023C26.613 0.754576 25.9319 0.733032 20.4995 0.733032C15.0689 0.733032 14.3878 0.754576 12.2542 0.852023C9.15836 0.99055 6.09484 1.8387 3.85727 4.05033C1.61094 6.27054 0.762109 9.29257 0.620078 12.3506C0.522891 14.4594 0.5 15.1318 0.5 20.4999C0.5 25.8682 0.522891 26.5416 0.620078 28.6512C0.762734 31.7199 1.61008 34.7305 3.85711 36.9498C6.10383 39.1687 9.16047 40.0089 12.2542 40.1489C14.3878 40.2453 15.0689 40.2671 20.4995 40.2671C25.932 40.2671 26.613 40.2452 28.7466 40.1489C31.8476 40.0085 34.9013 39.1676 37.1436 36.9498C39.3844 34.7334 40.2394 31.7024 40.3796 28.6511C40.4771 26.5416 40.5 25.8681 40.5 20.4999C40.5 15.1316 40.4771 14.4593 40.3796 12.3505C40.283 10.246 39.9448 8.80958 39.4501 7.55187ZM36.7795 28.4878C36.6808 30.6348 36.1761 32.868 34.5955 34.4321C32.9941 36.0169 30.7682 36.4924 28.5823 36.5909C26.4728 36.6854 25.8411 36.7061 20.4995 36.7061C15.1598 36.7061 14.528 36.6853 12.4184 36.5909C10.227 36.4922 8.00453 36.0087 6.40445 34.4324C4.80898 32.8605 4.31797 30.6334 4.22023 28.4877C4.12469 26.4038 4.10375 25.7786 4.10375 20.4999C4.10375 15.2223 4.12477 14.5971 4.22023 12.512C4.31766 10.3748 4.83211 8.12521 6.40414 6.56883C7.99805 4.99083 10.2436 4.508 12.4185 4.40993C14.528 4.31472 15.1598 4.2948 20.4995 4.2948C25.8403 4.2948 26.4728 4.31472 28.5824 4.40993C30.7726 4.50869 32.9987 4.98991 34.5953 6.56852C36.1927 8.14791 36.6805 10.359 36.7795 12.5121C36.8762 14.5971 36.8972 15.2223 36.8972 20.4999C36.8971 25.7787 36.8762 26.4038 36.7795 28.4878Z" fill="#757575"/>
</g>
<defs>
<clipPath id="clip0_130_5419">
<rect width="40" height="39.5349" fill="white" transform="translate(0.5 0.732544)"/>
</clipPath>
</defs>
</svg>
