<svg width="24" height="24" viewBox="0 0 24 24" fill="none" xmlns="http://www.w3.org/2000/svg">
<path d="M20.4827 7.60381C20.4955 7.79341 20.4955 7.98394 20.4955 8.17527C20.4955 14.0176 16.0923 20.7546 8.04194 20.7546V20.7512C5.6636 20.7544 3.33464 20.0662 1.33301 18.7687C1.6788 18.8105 2.02668 18.8318 2.37493 18.8325C4.34618 18.8346 6.26077 18.1666 7.81069 16.9362C5.9381 16.9007 4.29489 15.667 3.72151 13.8659C4.37739 13.9936 5.05347 13.9676 5.69785 13.7901C3.6556 13.3734 2.18693 11.5607 2.18638 9.45621C2.18638 9.43723 2.18638 9.41829 2.18638 9.40019C2.79505 9.74291 3.47639 9.93273 4.17297 9.95356C2.24947 8.65613 1.65609 6.07182 2.8178 4.0517C5.04031 6.8137 8.31919 8.4927 11.8384 8.67094C11.4856 7.13558 11.9679 5.52653 13.1046 4.44673C14.8672 2.7724 17.6398 2.85834 19.2974 4.63874C20.2775 4.44349 21.2175 4.08057 22.0767 3.56558C21.75 4.58941 21.0661 5.45843 20.1524 6.01096C21.0201 5.90738 21.8675 5.67291 22.6663 5.31538C22.0788 6.20305 21.3393 6.97797 20.4827 7.60381Z" fill="url(#paint0_linear_600_3473)"/>
<defs>
<linearGradient id="paint0_linear_600_3473" x1="11.9997" y1="3.24512" x2="11.9997" y2="20.7546" gradientUnits="userSpaceOnUse">
<stop stop-color="#EA686B"/>
<stop offset="1" stop-color="#ED8155"/>
</linearGradient>
</defs>
</svg>
