<svg width="24" height="24" viewBox="0 0 24 24" fill="none" xmlns="http://www.w3.org/2000/svg">
<path d="M11.9994 6.58594C8.97467 6.58594 6.52217 9.01037 6.52217 11.9999C6.52217 14.99 8.97467 17.4134 11.9994 17.4134C15.0247 17.4134 17.4776 14.99 17.4776 11.9999C17.4776 9.01037 15.0247 6.58594 11.9994 6.58594ZM11.9994 15.5142C10.036 15.5142 8.44372 13.9409 8.44372 11.9999C8.44372 10.0589 10.036 8.48559 11.9994 8.48559C13.9632 8.48559 15.5555 10.0589 15.5555 11.9999C15.5555 13.9408 13.9632 15.5142 11.9994 15.5142ZM18.9736 6.37232C18.9736 7.07044 18.4004 7.63699 17.6936 7.63699C16.9868 7.63699 16.4136 7.07044 16.4136 6.37232C16.4136 5.67392 16.9868 5.10721 17.6936 5.10721C18.4004 5.10721 18.9736 5.67392 18.9736 6.37232ZM22.1064 5.09424C21.8337 4.40065 21.469 3.81298 20.8763 3.22679C19.6808 2.04424 18.045 1.5947 16.3978 1.52098C15.2599 1.46901 14.8967 1.45752 11.9994 1.45752C9.10309 1.45752 8.73984 1.46901 7.60192 1.52098C5.9508 1.59486 4.31692 2.04721 3.12355 3.22675C1.92551 4.41086 1.4728 6.0226 1.39705 7.65354C1.34522 8.77823 1.33301 9.13684 1.33301 11.9999C1.33301 14.8629 1.34522 15.2221 1.39705 16.3472C1.47313 17.9838 1.92505 19.5895 3.12347 20.7731C4.32172 21.9565 5.95192 22.4047 7.60192 22.4793C8.73984 22.5307 9.10309 22.5423 11.9994 22.5423C14.8967 22.5423 15.26 22.5307 16.3979 22.4793C18.0517 22.4045 19.6804 21.9559 20.8763 20.7731C22.0713 19.5911 22.5273 17.9745 22.6021 16.3472C22.6541 15.2221 22.6663 14.8629 22.6663 11.9998C22.6663 9.13676 22.6541 8.77819 22.6021 7.6535C22.5506 6.53108 22.3702 5.76501 22.1064 5.09424ZM20.6821 16.26C20.6294 17.4051 20.3603 18.5962 19.5173 19.4304C18.6632 20.2756 17.4761 20.5292 16.3103 20.5817C15.1852 20.6321 14.8483 20.6431 11.9994 20.6431C9.15155 20.6431 8.81463 20.6321 7.68947 20.5817C6.52072 20.5291 5.33542 20.2712 4.48205 19.4305C3.63113 18.5922 3.36926 17.4044 3.31713 16.26C3.26617 15.1486 3.25501 14.8152 3.25501 11.9998C3.25501 9.18511 3.26622 8.8517 3.31713 7.73961C3.36909 6.59981 3.64347 5.40001 4.48188 4.56994C5.33197 3.72835 6.52959 3.47083 7.68955 3.41853C8.81463 3.36775 9.15155 3.35713 11.9994 3.35713C14.8478 3.35713 15.1852 3.36775 16.3103 3.41853C17.4784 3.4712 18.6656 3.72785 19.5172 4.56978C20.3691 5.41212 20.6293 6.59137 20.6821 7.7397C20.7336 8.8517 20.7448 9.18511 20.7448 11.9999C20.7448 14.8152 20.7336 15.1486 20.6821 16.26Z" fill="url(#paint0_linear_600_3471)"/>
<defs>
<linearGradient id="paint0_linear_600_3471" x1="11.9997" y1="1.45752" x2="11.9997" y2="22.5423" gradientUnits="userSpaceOnUse">
<stop stop-color="#EA686B"/>
<stop offset="1" stop-color="#ED8155"/>
</linearGradient>
</defs>
</svg>
