<svg width="24" height="24" viewBox="0 0 24 24" fill="none" xmlns="http://www.w3.org/2000/svg">
<path d="M22.6663 12.0002C22.6663 17.3243 18.7655 21.7372 13.6663 22.5372V15.0835H16.1518L16.6247 12.0002H13.6663V9.99933C13.6663 9.15558 14.0797 8.3335 15.4047 8.3335H16.7497V5.7085C16.7497 5.7085 15.5288 5.50016 14.3618 5.50016C11.9255 5.50016 10.333 6.97683 10.333 9.65016V12.0002H7.62467V15.0835H10.333V22.5372C5.23384 21.7372 1.33301 17.3243 1.33301 12.0002C1.33301 6.10933 6.10884 1.3335 11.9997 1.3335C17.8905 1.3335 22.6663 6.10933 22.6663 12.0002Z" fill="url(#paint0_linear_600_3475)"/>
<path d="M16.1521 15.0833L16.625 12H13.6667V9.99913C13.6667 9.15558 14.0799 8.33333 15.405 8.33333H16.75V5.70833C16.75 5.70833 15.5293 5.5 14.3623 5.5C11.9258 5.5 10.3333 6.97667 10.3333 9.65V12H7.625V15.0833H10.3333V22.537C10.8764 22.6222 11.433 22.6667 12 22.6667C12.567 22.6667 13.1236 22.6222 13.6667 22.537V15.0833H16.1521Z" fill="white"/>
<defs>
<linearGradient id="paint0_linear_600_3475" x1="11.9997" y1="1.3335" x2="11.9997" y2="22.5372" gradientUnits="userSpaceOnUse">
<stop stop-color="#EA686B"/>
<stop offset="1" stop-color="#ED8155"/>
</linearGradient>
</defs>
</svg>
