<svg width="24" height="24" viewBox="0 0 24 24" fill="none" xmlns="http://www.w3.org/2000/svg">
<path d="M22.2196 7.0135C21.9742 6.08967 21.2514 5.36213 20.3335 5.11517C18.6698 4.6665 11.9987 4.6665 11.9987 4.6665C11.9987 4.6665 5.32757 4.6665 3.66391 5.11517C2.74603 5.36209 2.02316 6.08967 1.77782 7.0135C1.33203 8.688 1.33203 12.1817 1.33203 12.1817C1.33203 12.1817 1.33203 15.6753 1.77782 17.3498C2.02316 18.2737 2.74603 19.0012 3.66391 19.2482C5.32757 19.6968 11.9987 19.6968 11.9987 19.6968C11.9987 19.6968 18.6698 19.6968 20.3335 19.2482C21.2514 19.0012 21.9742 18.2737 22.2196 17.3498C22.6654 15.6753 22.6654 12.1817 22.6654 12.1817C22.6654 12.1817 22.6654 8.688 22.2196 7.0135Z" fill="url(#paint0_linear_600_3479)"/>
<path d="M9.81641 15.3538L15.3922 12.1818L9.81641 9.00977V15.3538Z" fill="white"/>
<defs>
<linearGradient id="paint0_linear_600_3479" x1="11.9987" y1="4.6665" x2="11.9987" y2="19.6968" gradientUnits="userSpaceOnUse">
<stop stop-color="#EA686B"/>
<stop offset="1" stop-color="#ED8155"/>
</linearGradient>
</defs>
</svg>
