<svg width="42" height="44" viewBox="0 0 42 44" fill="none" xmlns="http://www.w3.org/2000/svg">
<path d="M37.7009 13.3452C37.7261 13.7185 37.7261 14.0936 37.7261 14.4703C37.7261 25.9723 29.0573 39.2358 13.2082 39.2358V39.229C8.52584 39.2354 3.9407 37.8804 0 35.3261C0.680777 35.4084 1.36566 35.4503 2.05127 35.4517C5.93217 35.4557 9.70151 34.1407 12.7529 31.7184C9.06626 31.6484 5.83119 29.2195 4.70236 25.6737C5.99361 25.925 7.32465 25.8739 8.59327 25.5244C4.57259 24.704 1.68115 21.1353 1.68008 16.9921C1.68008 16.9547 1.68008 16.9174 1.68008 16.8818C2.87839 17.5565 4.21977 17.9302 5.59117 17.9713C1.80428 15.4169 0.63607 10.3291 2.92318 6.35199C7.29873 11.7897 13.754 15.0952 20.6825 15.4461C19.9879 12.4234 20.9374 9.25556 23.1753 7.12971C26.6454 3.83338 32.1039 4.00258 35.3673 7.50772C37.297 7.12333 39.1475 6.40883 40.839 5.39496C40.1958 7.41061 38.8494 9.1215 37.0506 10.2093C38.7589 10.0054 40.4272 9.54375 41.9999 8.83986C40.8431 10.5875 39.3873 12.1131 37.7009 13.3452Z" fill="#1D9BF0"/>
</svg>
