<svg width="42" height="44" viewBox="0 0 42 44" fill="none" xmlns="http://www.w3.org/2000/svg">
<g clip-path="url(#clip0_543_3614)">
<path d="M17.7681 23.9351C17.2012 23.7562 16.6018 23.6523 15.9771 23.6523C12.6304 23.6523 9.90734 26.3961 9.90734 29.7686C9.90734 32.1169 11.2295 34.1574 13.1615 35.1819C14.0039 35.6286 14.9609 35.8846 15.9771 35.8846C19.2467 35.8846 21.9138 33.2639 22.0352 29.9987L22.0468 0.839722H29.2675C29.2675 1.47048 29.3278 2.08686 29.438 2.68588C29.9473 5.45812 31.5802 7.83643 33.8427 9.32269C35.4181 10.3578 37.2965 10.962 39.3132 10.962V12.5829V18.2377C35.5692 18.2377 32.0995 17.0307 29.2675 14.9825V29.7685C29.2675 37.1529 23.3055 43.1602 15.9771 43.1602C13.145 43.1602 10.5192 42.2603 8.36048 40.7333C4.93313 38.3087 2.68671 34.2993 2.68671 29.7685C2.68671 22.3841 8.64866 16.3764 15.9771 16.3764C16.5853 16.3764 17.1814 16.4268 17.7681 16.5073V23.9351Z" fill="black"/>
</g>
<defs>
<clipPath id="clip0_543_3614">
<rect width="42" height="42.3206" fill="white" transform="translate(0 0.839722)"/>
</clipPath>
</defs>
</svg>
