<svg width="20" height="24" viewBox="0 0 20 24" fill="none" xmlns="http://www.w3.org/2000/svg">
<path d="M7.68844 8.26109L6.14502 5.97923C6.06761 5.86403 6.09663 5.70717 6.21034 5.62751L7.13203 4.98781C7.24573 4.90937 7.40056 4.93879 7.47918 5.05398L8.2642 6.21575L12.5219 1.86158C12.655 1.72555 12.8715 1.72433 13.007 1.85913L13.6686 2.52335C13.8029 2.65815 13.8041 2.87751 13.671 3.01477L8.46983 8.33462C8.24363 8.56133 7.86867 8.52702 7.68844 8.26109Z" fill="#767677"/>
<path d="M14.6762 7.29534V5.85049L13.0203 5.43137C12.9683 5.19976 12.9006 4.97304 12.8183 4.7549L10.8588 6.7598C10.7645 8.22794 9.55974 9.3897 8.08647 9.3897C6.55152 9.3897 5.30686 8.12867 5.30686 6.57353C5.30686 5.01838 6.55152 3.75735 8.08647 3.75735C8.58482 3.75735 9.05172 3.89093 9.45571 4.12255L11.0923 2.44975C10.9604 2.35049 10.825 2.25735 10.6834 2.17157L10.8008 0.446076L9.44483 0L8.53885 1.46569C8.39007 1.4522 8.23888 1.44363 8.08647 1.44363C7.93406 1.44363 7.78287 1.4522 7.63409 1.46569L6.72812 0L5.37218 0.446076L5.48951 2.17157C5.23066 2.32966 4.98632 2.51103 4.75892 2.71078L3.17317 2.06372L2.33493 3.23284L3.43081 4.5576C3.31227 4.83701 3.21913 5.12868 3.1514 5.43015L1.49548 5.84926V7.29412L3.1514 7.71323C3.21913 8.01471 3.31227 8.3076 3.43081 8.58578L2.33493 9.91054L3.17317 11.0797L4.75892 10.4326C4.98511 10.6336 5.22945 10.8149 5.48951 10.9718L5.37218 12.6973L6.72812 13.1434L7.63409 11.6777C7.78287 11.6912 7.93406 11.6998 8.08647 11.6998C8.23888 11.6998 8.39007 11.6912 8.53885 11.6777L9.44483 13.1434L10.8008 12.6973L10.6834 10.9718C10.9435 10.8137 11.1866 10.6324 11.414 10.4326L12.9998 11.0797L13.838 9.91054L12.7421 8.58578C12.8607 8.30637 12.9538 8.01471 13.0215 7.71323L14.6762 7.29534Z" fill="#767677"/>
<path d="M15.2048 23.8419L13.8223 22.4412C13.6142 22.2304 13.6142 21.8873 13.8223 21.6765L17.2067 18.2476C17.4147 18.0368 17.7534 18.0368 17.9615 18.2476L19.344 19.6483C19.5521 19.8591 19.5521 20.2022 19.344 20.413L15.9596 23.8419C15.7516 24.0527 15.4129 24.0527 15.2048 23.8419Z" fill="#767677"/>
<path d="M15.0028 16.3603L13.9166 15.1728C13.3735 14.5784 12.609 14.2402 11.8095 14.2402H6.76435C6.43897 14.2402 6.19948 14.5551 6.28778 14.8725C6.40148 15.2806 6.74379 15.7402 7.70177 15.7696H10.4028C10.4028 15.7696 10.641 16.0759 9.90804 16.2561H5.29109C4.92337 16.2561 4.57018 16.1103 4.3077 15.8492L2.41229 13.9644C2.41229 13.9644 1.74823 13.3713 0.813227 13.7255C0.491479 13.848 0.398342 14.2659 0.624533 14.5281L4.23392 18.7046C4.65969 19.1973 5.27536 19.4804 5.92127 19.4804H11.0402C11.6039 19.4804 12.1433 19.7071 12.5425 20.1103L12.9925 20.5661C13.1993 20.7757 13.5331 20.7757 13.74 20.5661L16.0733 18.2022C16.2801 17.9926 16.2801 17.6544 16.0733 17.4448L15.0028 16.3603Z" fill="#767677"/>
</svg>
