<svg width="24" height="18" viewBox="0 0 24 18" fill="none" xmlns="http://www.w3.org/2000/svg">
<path d="M16.5302 0V3.0555C10.9634 3.43193 7.39431 6.46341 5.82277 12.1496C10.102 8.77079 13.6664 7.52051 16.5161 8.3991V11.6863C17.8037 10.6919 20.2983 8.67917 24 5.64769C20.0804 2.49062 17.5905 0.608163 16.5302 0ZM0.596791 2.30248C0.246542 2.66928 0.0570931 3.0893 0.0287432 3.5624L0.000393057 16.1754C-0.00905691 16.6001 0.151892 17.0007 0.48324 17.3773C0.805139 17.7537 1.16964 17.9613 1.57674 18L21.9692 17.9855C22.3763 17.9951 22.7834 17.7779 23.1905 17.3339C23.4177 17.0732 23.5407 16.6726 23.5596 16.1319L23.5739 10.267L21.3302 12.1786V15.7699H2.21573L2.22998 4.04025H6.58972L9.72816 1.75229H1.66209C1.22634 1.80047 0.87129 1.98387 0.596791 2.30248Z" fill="#767677"/>
</svg>
