<svg width="30" height="18" viewBox="0 0 30 18" fill="none" xmlns="http://www.w3.org/2000/svg">
<g clip-path="url(#clip0_6_770)">
<path fill-rule="evenodd" clip-rule="evenodd" d="M0.931436 4.84871L13.0826 17.1365C13.3286 17.3913 13.6226 17.5937 13.9472 17.7319C14.2718 17.8701 14.6205 17.9413 14.9727 17.9413C15.325 17.9413 15.6737 17.8701 15.9982 17.7319C16.3228 17.5937 16.6168 17.3913 16.8628 17.1365L29.0249 4.84871C30.1206 3.7417 30.4384 2.2251 29.266 1.1513L28.7839 0.686346C27.8416 -0.154982 26.6692 -0.420666 25.8365 0.564573C22.8891 3.54243 19.9307 6.64207 16.8628 9.631C16.6153 9.88303 16.3208 10.0831 15.9964 10.2196C15.672 10.3561 15.3241 10.4264 14.9727 10.4264C14.6213 10.4264 14.2734 10.3561 13.949 10.2196C13.6246 10.0831 13.3301 9.88303 13.0826 9.631L4.1199 0.564573C3.28717 -0.398527 2.10383 -0.154982 1.16154 0.686346L0.690383 1.1513C0.454998 1.40465 0.273678 1.70418 0.157685 2.03131C0.0416924 2.35843 -0.00649578 2.70616 0.0161093 3.05289C0.0387144 3.39962 0.131636 3.73796 0.289096 4.04689C0.446555 4.35582 0.665193 4.62874 0.931436 4.84871Z" fill="#E64A19"/>
</g>
<defs>
<clipPath id="clip0_6_770">
<rect width="18" height="30" fill="white" transform="matrix(0 -1 1 0 0 18)"/>
</clipPath>
</defs>
</svg>
