<svg width="375" height="3030" viewBox="0 0 375 3030" fill="none" xmlns="http://www.w3.org/2000/svg">
<circle cx="370.5" cy="10.5" r="9.5" stroke="#F68B7E" stroke-width="2"/>
<circle cx="371.006" cy="313.126" r="10.3087" transform="rotate(75 371.006 313.126)" stroke="#F68B7E" stroke-width="2"/>
<circle cx="34.4338" cy="296.434" r="13.5" transform="rotate(-109.021 34.4338 296.434)" stroke="#F0F5FF" stroke-width="2"/>
<circle cx="12.0473" cy="10.4008" r="7.4732" transform="rotate(175.979 12.0473 10.4008)" stroke="#F0F5FF" stroke-width="2"/>
<circle cx="344.5" cy="23.5" r="5" stroke="#F68B7E"/>
<circle cx="359.97" cy="290.97" r="3.55788" transform="rotate(75 359.97 290.97)" stroke="#F68B7E"/>
<circle cx="61.2282" cy="318.93" r="6.5" transform="rotate(-109.021 61.2282 318.93)" stroke="#F0F5FF" stroke-width="2"/>
<circle cx="28.7974" cy="15.6793" r="3.88269" transform="rotate(175.979 28.7974 15.6793)" stroke="#F0F5FF"/>
<circle cx="1.6042" cy="807.603" r="12.1951" transform="rotate(-139.494 1.6042 807.603)" stroke="#F68B7E" stroke-width="2"/>
<circle cx="369.642" cy="825.207" r="13.5" transform="rotate(72.3788 369.642 825.207)" stroke="#F0F5FF" stroke-width="2"/>
<circle cx="343.404" cy="802.062" r="6.5" transform="rotate(72.3788 343.404 802.062)" stroke="#F0F5FF" stroke-width="2"/>
<circle cx="359.958" cy="1720.96" r="13.5" transform="rotate(73.8721 359.958 1720.96)" stroke="#F0F5FF" stroke-width="2"/>
<circle cx="9.6042" cy="1685.6" r="12.1951" transform="rotate(-139.494 9.6042 1685.6)" stroke="#F68B7E" stroke-width="2"/>
<circle cx="28.7203" cy="841.721" r="3.55788" transform="rotate(-139.494 28.7203 841.721)" stroke="#F68B7E"/>
<circle cx="36.7203" cy="1709.72" r="3.55788" transform="rotate(-139.494 36.7203 1709.72)" stroke="#F68B7E"/>
<circle cx="28.7203" cy="2078.72" r="3.55788" transform="rotate(-139.494 28.7203 2078.72)" stroke="#F68B7E"/>
<circle cx="321.289" cy="1705.29" r="6.5" transform="rotate(73.8721 321.289 1705.29)" stroke="#F0F5FF" stroke-width="2"/>
<circle cx="12.6042" cy="2047.6" r="12.1951" transform="rotate(-139.494 12.6042 2047.6)" stroke="#F68B7E" stroke-width="2"/>
<circle cx="326.289" cy="2059.29" r="6.5" transform="rotate(73.8721 326.289 2059.29)" stroke="#F0F5FF" stroke-width="2"/>
<circle cx="348.958" cy="2024.96" r="13.5" transform="rotate(73.8721 348.958 2024.96)" stroke="#F0F5FF" stroke-width="2"/>
<circle cx="311.604" cy="2504.6" r="12.1951" transform="rotate(-139.494 311.604 2504.6)" stroke="#F68B7E" stroke-width="2"/>
<circle cx="6.76499" cy="3005.77" r="12.1951" transform="rotate(-152.816 6.76499 3005.77)" stroke="#F68B7E" stroke-width="2"/>
<circle cx="16.9579" cy="2510.96" r="13.5" transform="rotate(73.8721 16.9579 2510.96)" stroke="#F0F5FF" stroke-width="2"/>
<circle cx="369.012" cy="2967.46" r="13.5" transform="rotate(-131.197 369.012 2967.46)" stroke="#F0F5FF" stroke-width="2"/>
<circle cx="346.72" cy="2528.72" r="3.55788" transform="rotate(-139.494 346.72 2528.72)" stroke="#F68B7E"/>
<circle cx="46.4941" cy="3021.14" r="3.55788" transform="rotate(-152.816 46.4941 3021.14)" stroke="#F68B7E"/>
<circle cx="61.2887" cy="2483.29" r="6.5" transform="rotate(73.8721 61.2887 2483.29)" stroke="#F0F5FF" stroke-width="2"/>
<circle cx="340.582" cy="3019.31" r="6.5" transform="rotate(-131.197 340.582 3019.31)" stroke="#F0F5FF" stroke-width="2"/>
</svg>
