<svg width="1920" height="4991" viewBox="0 0 1920 4991" fill="none" xmlns="http://www.w3.org/2000/svg">
<circle cx="19.4739" cy="1705.47" r="104" transform="rotate(159.225 19.4739 1705.47)" stroke="#F68B7E" stroke-width="30"/>
<circle cx="180.616" cy="1864.61" r="42" transform="rotate(159.225 180.616 1864.61)" stroke="#F68B7E" stroke-width="10"/>
<circle cx="1885" cy="1462" r="104" stroke="#F0F5FF" stroke-width="30"/>
<circle cx="10.4739" cy="1053.47" r="104" transform="rotate(159.225 10.4739 1053.47)" stroke="#F0F5FF" stroke-width="30"/>
<circle cx="69.4739" cy="153.471" r="104" transform="rotate(159.225 69.4739 153.471)" stroke="#F0F5FF" stroke-width="30"/>
<circle cx="37.1284" cy="4578.13" r="120.54" transform="rotate(-29.9731 37.1284 4578.13)" stroke="#F0F5FF" stroke-width="30"/>
<circle cx="171.62" cy="1212.62" r="42" transform="rotate(159.225 171.62 1212.62)" stroke="#F0F5FF" stroke-width="10"/>
<circle cx="163.616" cy="429.615" r="42" transform="rotate(159.225 163.616 429.615)" stroke="#F0F5FF" stroke-width="10"/>
<circle cx="167.195" cy="4833.2" r="42" transform="rotate(-29.9731 167.195 4833.2)" stroke="#F0F5FF" stroke-width="10"/>
<circle cx="41.631" cy="3731.63" r="100.15" transform="rotate(167.312 41.631 3731.63)" stroke="#F68B7E" stroke-width="30"/>
<circle cx="1880.86" cy="4831.89" r="100.15" transform="rotate(-32.338 1880.86 4831.89)" stroke="#F68B7E" stroke-width="30"/>
<circle cx="185.511" cy="3927.51" r="40.6085" transform="rotate(167.312 185.511 3927.51)" stroke="#F68B7E" stroke-width="10"/>
<circle cx="1771.93" cy="4543.93" r="40.6085" transform="rotate(-32.338 1771.93 4543.93)" stroke="#F68B7E" stroke-width="10"/>
<circle cx="1879" cy="3684" r="104" stroke="#F0F5FF" stroke-width="30"/>
<circle cx="1742" cy="3490" r="42" stroke="#F0F5FF" stroke-width="10"/>
<circle cx="48" cy="2873" r="104" stroke="#F0F5FF" stroke-width="30"/>
<circle cx="181" cy="3068" r="42" stroke="#F0F5FF" stroke-width="10"/>
<circle cx="1861" cy="2676" r="104" stroke="#F68B7E" stroke-width="30"/>
<circle cx="1760" cy="2331" r="42" stroke="#F68B7E" stroke-width="10"/>
<circle cx="1905.16" cy="585.881" r="104" transform="rotate(-8.02696 1905.16 585.881)" stroke="#F68B7E" stroke-width="30"/>
<circle cx="1771.1" cy="301.102" r="42" transform="rotate(-8.02696 1771.1 301.102)" stroke="#F68B7E" stroke-width="10"/>
<circle cx="1771" cy="1006" r="42" stroke="#F0F5FF" stroke-width="10"/>
</svg>
