<svg width="42" height="42" viewBox="0 0 42 42" fill="none" xmlns="http://www.w3.org/2000/svg">
<g clip-path="url(#clip0_230_1049)">
<path d="M20.9994 10.3412C15.0445 10.3412 10.2162 15.1143 10.2162 20.9999C10.2162 26.8867 15.0445 31.6577 20.9994 31.6577C26.9555 31.6577 31.7846 26.8867 31.7846 20.9999C31.7846 15.1143 26.9555 10.3412 20.9994 10.3412ZM20.9994 27.9187C17.1341 27.9187 13.9992 24.8212 13.9992 20.9999C13.9992 17.1786 17.134 14.0811 20.9994 14.0811C24.8656 14.0811 28.0005 17.1786 28.0005 20.9999C28.0005 24.8211 24.8656 27.9187 20.9994 27.9187ZM34.7299 9.92065C34.7299 11.2951 33.6014 12.4105 32.2099 12.4105C30.8185 12.4105 29.6899 11.2951 29.6899 9.92065C29.6899 8.54566 30.8184 7.42995 32.2099 7.42995C33.6014 7.42995 34.7299 8.54566 34.7299 9.92065ZM40.8976 7.40441C40.3607 6.03891 39.6427 4.88193 38.4759 3.72788C36.1221 1.39974 32.9017 0.514698 29.6589 0.369569C27.4186 0.26725 26.7035 0.244629 20.9994 0.244629C15.2974 0.244629 14.5822 0.26725 12.3419 0.369569C9.09128 0.515022 5.87459 1.40558 3.52513 3.7278C1.16648 6.05901 0.275215 9.23214 0.126082 12.443C0.0240352 14.6573 0 15.3633 0 20.9999C0 26.6365 0.0240352 27.3436 0.126082 29.5587C0.275871 32.7808 1.16558 35.942 3.52496 38.2722C5.88402 40.602 9.09349 41.4843 12.3419 41.6313C14.5822 41.7325 15.2974 41.7554 20.9994 41.7554C26.7036 41.7554 27.4187 41.7324 29.659 41.6313C32.915 41.4839 36.1214 40.6009 38.4758 38.2722C40.8286 35.945 41.7263 32.7625 41.8736 29.5587C41.976 27.3436 42 26.6365 42 20.9998C42 15.3631 41.976 14.6572 41.8736 12.443C41.7721 10.2332 41.417 8.725 40.8976 7.40441ZM38.0935 29.3871C37.9898 31.6414 37.4599 33.9864 35.8003 35.6287C34.1188 37.2927 31.7816 37.792 29.4865 37.8954C27.2715 37.9946 26.6081 38.0163 20.9994 38.0163C15.3928 38.0163 14.7294 37.9945 12.5143 37.8954C10.2133 37.7917 7.87976 37.2841 6.19968 35.6289C4.52443 33.9785 4.00887 31.64 3.90625 29.387C3.80592 27.1989 3.78394 26.5425 3.78394 20.9998C3.78394 15.4583 3.806 14.8019 3.90625 12.6125C4.00854 10.3685 4.54871 8.00641 6.19935 6.37222C7.87295 4.71532 10.2308 4.20834 12.5144 4.10537C14.7295 4.0054 15.3928 3.98449 20.9994 3.98449C26.6073 3.98449 27.2715 4.0054 29.4865 4.10537C31.7862 4.20907 34.1236 4.71435 35.8001 6.37189C37.4774 8.03025 37.9895 10.3519 38.0935 12.6127C38.195 14.8019 38.217 15.4583 38.217 20.9999C38.217 26.5426 38.195 27.199 38.0935 29.3871Z" fill="url(#paint0_linear_230_1049)"/>
</g>
<defs>
<linearGradient id="paint0_linear_230_1049" x1="3.52505" y1="38.2723" x2="38.0671" y2="3.32386" gradientUnits="userSpaceOnUse">
<stop stop-color="#FDD91D"/>
<stop offset="0.05" stop-color="#FDD91D"/>
<stop offset="0.4972" stop-color="#EC1C24"/>
<stop offset="0.95" stop-color="#A43A94"/>
<stop offset="1" stop-color="#A43A94"/>
</linearGradient>
<clipPath id="clip0_230_1049">
<rect width="42" height="41.5116" fill="white" transform="translate(0 0.244141)"/>
</clipPath>
</defs>
</svg>
