<svg width="25" height="45" viewBox="0 0 25 45" fill="none" xmlns="http://www.w3.org/2000/svg">
<g clip-path="url(#clip0_6_906)">
<path fill-rule="evenodd" clip-rule="evenodd" d="M6.73432 43.6028L23.8007 25.376C24.1545 25.007 24.4357 24.566 24.6277 24.0792C24.8196 23.5923 24.9185 23.0692 24.9185 22.5408C24.9185 22.0125 24.8196 21.4894 24.6277 21.0025C24.4357 20.5156 24.1545 20.0747 23.8007 19.7057L6.73432 1.46251C5.1968 -0.181026 3.09041 -0.657658 1.59902 1.10093L0.953259 1.82409C-0.215254 3.23753 -0.584259 4.99611 0.78413 6.2452C4.92005 10.6663 9.22509 15.1038 13.3764 19.7057C13.7264 20.077 14.0043 20.5187 14.1939 21.0052C14.3835 21.4918 14.4811 22.0137 14.4811 22.5408C14.4811 23.068 14.3835 23.5899 14.1939 24.0764C14.0043 24.563 13.7264 25.0047 13.3764 25.376L0.78413 38.8201C-0.553509 40.0691 -0.215254 41.8442 0.953259 43.2576L1.59902 43.9643C1.9509 44.3174 2.36692 44.5894 2.82126 44.7634C3.2756 44.9374 3.75855 45.0097 4.24013 44.9757C4.7217 44.9418 5.19161 44.8025 5.62068 44.5663C6.04974 44.3301 6.4288 44.0021 6.73432 43.6028Z" fill="url(#paint0_linear_6_906)"/>
</g>
<defs>
<linearGradient id="paint0_linear_6_906" x1="12.4127" y1="44.9839" x2="12.4127" y2="-0.013195" gradientUnits="userSpaceOnUse">
<stop stop-color="#EA686B"/>
<stop offset="1" stop-color="#ED8155"/>
</linearGradient>
<clipPath id="clip0_6_906">
<rect width="25" height="45" fill="white" transform="matrix(-1 0 0 -1 25 45)"/>
</clipPath>
</defs>
</svg>
