<svg width="208" height="658" viewBox="0 0 208 658" fill="none" xmlns="http://www.w3.org/2000/svg">
<path d="M0.516281 103.734C0.516281 76.0307 11.2966 49.9858 30.8917 30.3754C50.4868 10.7804 76.5316 0 104.25 0C131.954 0 157.999 10.7804 177.609 30.3754C197.204 49.9858 207.984 76.0307 207.984 103.734C207.984 128.95 198.832 153.259 182.216 172.179C181.371 173.131 179.928 173.223 178.96 172.394C178.008 171.549 177.916 170.105 178.745 169.138C194.624 151.063 203.377 127.829 203.377 103.734C203.377 77.2746 193.073 52.3661 174.353 33.631C155.618 14.9113 130.725 4.60699 104.25 4.60699C77.7601 4.60699 52.867 14.9113 34.1473 33.631C15.4276 52.3661 5.12326 77.2592 5.12326 103.734C5.12326 122.577 10.4213 140.897 20.4338 156.699C38.0172 184.479 72.416 200.128 105.678 215.285C139.248 230.58 173.969 246.382 191.952 274.807C202.441 291.377 207.984 310.542 207.984 330.229C207.984 357.948 197.204 383.993 177.609 403.588C170.284 410.913 161.961 417.071 152.869 421.893C151.748 422.492 150.351 422.062 149.752 420.941C149.153 419.82 149.583 418.422 150.704 417.823C159.396 413.216 167.351 407.335 174.353 400.332C193.073 381.612 203.377 356.719 203.377 330.229C203.377 311.417 198.079 293.097 188.067 277.264C170.821 249.991 136.73 234.48 103.774 219.462C69.8976 204.044 34.8844 188.088 16.5486 159.156C6.06004 142.617 0.516281 123.452 0.516281 103.734Z" fill="url(#paint0_linear_162_12986)"/>
<path d="M0.51651 554.266C0.51651 529.05 9.66905 504.741 26.3003 485.821C27.1449 484.869 28.5884 484.777 29.5559 485.607C30.508 486.451 30.6002 487.895 29.7709 488.862C13.8921 506.937 5.13884 530.156 5.13884 554.251C5.13884 580.71 15.4432 605.619 34.1629 624.354C52.898 643.073 77.7911 653.378 104.266 653.378C130.756 653.378 155.649 643.073 174.369 624.354C193.089 605.619 203.393 580.725 203.393 554.251C203.393 535.408 198.095 517.088 188.082 501.301C170.484 473.521 136.1 457.857 102.853 442.715C69.2835 427.436 34.5775 411.618 16.5795 383.178C6.09096 366.639 0.53186 347.474 0.53186 327.771C0.53186 300.052 11.3122 274.007 30.9073 254.412C40.0752 245.244 50.7327 237.965 62.5573 232.775C63.7244 232.268 65.0758 232.79 65.5979 233.957C66.1047 235.124 65.5826 236.476 64.4155 236.998C53.113 241.958 42.9315 248.915 34.1629 257.683C15.4432 276.403 5.13884 301.296 5.13884 327.786C5.13884 346.614 10.4369 364.919 20.4648 380.736C37.7256 408.025 71.802 423.535 104.757 438.538C138.619 453.956 173.647 469.912 191.968 498.859C202.456 515.383 208 534.548 208 554.266C208 581.969 197.22 608.014 177.625 627.625C158.03 647.22 131.985 658 104.266 658C76.5626 658 50.5177 647.22 30.9073 627.625C11.2969 608.014 0.51651 581.969 0.51651 554.266Z" fill="url(#paint1_linear_162_12986)"/>
<defs>
<linearGradient id="paint0_linear_162_12986" x1="207.984" y1="211.082" x2="0.516281" y2="211.082" gradientUnits="userSpaceOnUse">
<stop stop-color="#EA686B"/>
<stop offset="1" stop-color="#ED8155"/>
</linearGradient>
<linearGradient id="paint1_linear_162_12986" x1="208" y1="445.291" x2="0.51651" y2="445.291" gradientUnits="userSpaceOnUse">
<stop stop-color="#EA686B"/>
<stop offset="1" stop-color="#ED8155"/>
</linearGradient>
</defs>
</svg>
