<svg width="1429" height="451" viewBox="0 0 1429 451" fill="none" xmlns="http://www.w3.org/2000/svg">
<path d="M225.177 450.387C165.041 450.387 108.505 426.986 65.9365 384.45C23.4011 341.915 0 285.379 0 225.21C0 165.073 23.4011 108.537 65.9365 65.9687C108.505 23.4333 165.041 0.0322266 225.177 0.0322266C279.913 0.0322266 332.682 19.8998 373.751 55.9682C375.818 57.8016 376.018 60.9351 374.218 63.0352C372.384 65.102 369.251 65.302 367.151 63.5019C327.916 29.0336 277.48 10.0327 225.177 10.0327C167.741 10.0327 113.672 32.4004 73.0035 73.0357C32.3682 113.704 10.0005 167.74 10.0005 225.21C10.0005 282.712 32.3682 336.748 73.0035 377.383C113.672 418.019 167.708 440.386 225.177 440.386C266.079 440.386 305.848 428.886 340.149 407.152C400.452 368.983 434.421 294.313 467.322 222.109C500.524 149.239 534.825 73.8691 596.528 34.8339C632.497 12.0661 674.099 0.0322266 716.834 0.0322266C777.004 0.0322266 833.54 23.4333 876.075 65.9687C891.976 81.8694 905.343 99.937 915.81 119.671C917.11 122.105 916.177 125.138 913.743 126.438C911.31 127.738 908.276 126.805 906.976 124.371C896.976 105.504 884.209 88.2364 869.008 73.0357C828.373 32.4004 774.337 10.0327 716.834 10.0327C675.999 10.0327 636.23 21.5333 601.862 43.2676C542.659 80.7027 508.991 154.706 476.389 226.243C442.921 299.78 408.286 375.783 345.483 415.585C309.581 438.353 267.979 450.387 225.177 450.387Z" fill="url(#paint0_linear_160_11865)"/>
<path d="M1203.16 450.388C1148.42 450.388 1095.65 430.52 1054.58 394.419C1052.51 392.585 1052.31 389.452 1054.11 387.352C1055.95 385.285 1059.08 385.085 1061.18 386.885C1100.42 421.353 1150.82 440.354 1203.12 440.354C1260.56 440.354 1314.63 417.987 1355.3 377.351C1395.93 336.683 1418.3 282.647 1418.3 225.177C1418.3 167.675 1395.93 113.639 1355.3 73.0035C1314.63 32.3682 1260.59 10.0005 1203.12 10.0005C1162.22 10.0005 1122.45 21.501 1088.18 43.2354C1027.88 81.4372 993.879 156.074 961.011 228.244C927.842 301.114 893.507 376.451 831.771 415.52C795.869 438.288 754.267 450.355 711.499 450.355C651.329 450.355 594.793 426.954 552.258 384.418C532.357 364.517 516.556 341.383 505.289 315.715C504.189 313.182 505.322 310.248 507.856 309.115C510.389 308.015 513.323 309.148 514.456 311.681C525.223 336.216 540.324 358.317 559.358 377.351C599.993 417.987 654.029 440.354 711.532 440.354C752.401 440.354 792.136 428.854 826.471 407.086C885.707 369.618 919.375 295.647 951.943 224.111C985.412 150.607 1020.05 74.5702 1082.88 34.8017C1118.75 12.0339 1160.35 0 1203.16 0C1263.29 0 1319.83 23.4011 1362.4 65.9365C1404.93 108.472 1428.33 165.008 1428.33 225.177C1428.33 285.314 1404.93 341.85 1362.4 384.418C1319.83 426.987 1263.29 450.388 1203.16 450.388Z" fill="url(#paint1_linear_160_11865)"/>
<defs>
<linearGradient id="paint0_linear_160_11865" x1="458.199" y1="0.0322266" x2="458.199" y2="450.387" gradientUnits="userSpaceOnUse">
<stop stop-color="#EA686B"/>
<stop offset="1" stop-color="#ED8155"/>
</linearGradient>
<linearGradient id="paint1_linear_160_11865" x1="966.601" y1="0" x2="966.601" y2="450.388" gradientUnits="userSpaceOnUse">
<stop stop-color="#EA686B"/>
<stop offset="1" stop-color="#ED8155"/>
</linearGradient>
</defs>
</svg>
