<svg width="32" height="23" viewBox="0 0 32 23" fill="none" xmlns="http://www.w3.org/2000/svg">
<path d="M18.4897 0.872253C17.3267 2.03526 17.3267 3.91556 18.4897 5.0716L20.7112 7.29315C21.0524 7.63439 20.8087 8.21241 20.3282 8.21241H2.97366C1.33013 8.21241 0 9.54256 0 11.1861C0 12.8296 1.33013 14.1597 2.97366 14.1597H20.3282C20.8087 14.1597 21.0524 14.7378 20.7112 15.079L18.4897 17.3006C17.3267 18.4636 17.3267 20.3439 18.4897 21.4999C19.6527 22.6629 21.533 22.6629 22.696 21.4999L31.2897 12.9062C32.2368 11.9591 32.2368 10.4131 31.2897 9.46595L22.696 0.872253C21.533 -0.290751 19.6527 -0.290751 18.4897 0.872253Z" fill="url(#paint0_linear_84_2137)"/>
<defs>
<linearGradient id="paint0_linear_84_2137" x1="16" y1="0" x2="16" y2="22.3722" gradientUnits="userSpaceOnUse">
<stop stop-color="#EA686B"/>
<stop offset="1" stop-color="#ED8155"/>
</linearGradient>
</defs>
</svg>
