<svg width="43" height="28" viewBox="0 0 43 28" fill="none" xmlns="http://www.w3.org/2000/svg">
<path d="M21.5 0C11.9545 0 3.80273 5.80533 0.5 14C3.80273 22.1947 11.9545 28 21.5 28C31.0455 28 39.1973 22.1947 42.5 14C39.1973 5.80533 31.0455 0 21.5 0ZM21.5 23.3333C16.2309 23.3333 11.9545 19.152 11.9545 14C11.9545 8.848 16.2309 4.66667 21.5 4.66667C26.7691 4.66667 31.0455 8.848 31.0455 14C31.0455 19.152 26.7691 23.3333 21.5 23.3333ZM21.5 8.4C18.3309 8.4 15.7727 10.9013 15.7727 14C15.7727 17.0987 18.3309 19.6 21.5 19.6C24.6691 19.6 27.2273 17.0987 27.2273 14C27.2273 10.9013 24.6691 8.4 21.5 8.4Z" fill="#E64A19"/>
</svg>
