<svg width="42" height="28" viewBox="0 0 42 28" fill="none" xmlns="http://www.w3.org/2000/svg">
<path d="M28.6364 12.0346C31.8055 12.0346 34.3445 9.40077 34.3445 6.13801C34.3445 2.87525 31.8055 0.241455 28.6364 0.241455C25.4673 0.241455 22.9091 2.87525 22.9091 6.13801C22.9091 9.40077 25.4673 12.0346 28.6364 12.0346ZM13.3636 12.0346C16.5327 12.0346 19.0718 9.40077 19.0718 6.13801C19.0718 2.87525 16.5327 0.241455 13.3636 0.241455C10.1945 0.241455 7.63636 2.87525 7.63636 6.13801C7.63636 9.40077 10.1945 12.0346 13.3636 12.0346ZM13.3636 15.9656C8.91545 15.9656 0 18.2652 0 22.8449V27.7587H26.7273V22.8449C26.7273 18.2652 17.8118 15.9656 13.3636 15.9656ZM28.6364 15.9656C28.0827 15.9656 27.4527 16.0049 26.7845 16.0639C28.9991 17.7149 30.5455 19.9359 30.5455 22.8449V27.7587H42V22.8449C42 18.2652 33.0845 15.9656 28.6364 15.9656Z" fill="#E64A19"/>
</svg>
