<svg width="43" height="42" viewBox="0 0 43 42" fill="none" xmlns="http://www.w3.org/2000/svg">
<path d="M42.5 6.63158V11.0526H35.8684V17.6842H31.4474V11.0526H24.8158V6.63158H31.4474V0H35.8684V6.63158H42.5ZM35.8684 37.5789H4.92105V6.63158H18.1842V2.21053H4.92105C2.48947 2.21053 0.5 4.2 0.5 6.63158V37.5789C0.5 40.0105 2.48947 42 4.92105 42H35.8684C38.3 42 40.2895 40.0105 40.2895 37.5789V24.3158H35.8684V37.5789ZM27.0263 24.3158V33.1579H31.4474V24.3158H27.0263ZM18.1842 33.1579H22.6053V15.4737H18.1842V33.1579ZM13.7632 33.1579V19.8947H9.3421V33.1579H13.7632Z" fill="#E64A19"/>
</svg>
