<svg width="43" height="42" viewBox="0 0 43 42" fill="none" xmlns="http://www.w3.org/2000/svg">
<path d="M4.7 8.4H0.5V37.8C0.5 40.11 2.39 42 4.7 42H34.1V37.8H4.7V8.4ZM38.3 0H13.1C10.79 0 8.9 1.89 8.9 4.2V29.4C8.9 31.71 10.79 33.6 13.1 33.6H38.3C40.61 33.6 42.5 31.71 42.5 29.4V4.2C42.5 1.89 40.61 0 38.3 0ZM25.7 4.2C29.186 4.2 32 7.014 32 10.5C32 13.986 29.186 16.8 25.7 16.8C22.214 16.8 19.4 13.986 19.4 10.5C19.4 7.014 22.214 4.2 25.7 4.2ZM38.3 29.4H13.1V26.25C13.1 22.071 21.5 19.95 25.7 19.95C29.9 19.95 38.3 22.071 38.3 26.25V29.4Z" fill="#E64A19"/>
</svg>
