<svg width="25" height="233" viewBox="0 0 25 233" fill="none" xmlns="http://www.w3.org/2000/svg">
<rect x="9" y="231.916" width="230.802" height="4" transform="rotate(-89.6745 9 231.916)" fill="#E64A19"/>
<path fill-rule="evenodd" clip-rule="evenodd" d="M12.1361 0.0681904C18.7635 0.105839 24.1054 5.50886 24.0678 12.1362C24.0301 18.7635 18.6271 24.1055 11.9998 24.0678C5.3725 24.0302 0.0305203 18.6271 0.0681689 11.9998C0.105818 5.37252 5.50883 0.0305417 12.1361 0.0681904Z" fill="#E64A19"/>
<circle cx="12.068" cy="12.068" r="6.4186" transform="rotate(-89.6745 12.068 12.068)" fill="white"/>
<path fill-rule="evenodd" clip-rule="evenodd" d="M12.1361 104.204C18.7635 104.242 24.1054 109.645 24.0678 116.272C24.0301 122.899 18.6271 128.241 11.9998 128.204C5.3725 128.166 0.0305203 122.763 0.0681689 116.136C0.105818 109.508 5.50883 104.166 12.1361 104.204Z" fill="#E64A19"/>
<circle cx="12.068" cy="116.204" r="6.4186" transform="rotate(-89.6745 12.068 116.204)" fill="white"/>
<path fill-rule="evenodd" clip-rule="evenodd" d="M12.1361 208.34C18.7635 208.378 24.1054 213.781 24.0678 220.408C24.0301 227.035 18.6271 232.377 11.9998 232.34C5.3725 232.302 0.0305203 226.899 0.0681689 220.272C0.105818 213.644 5.50883 208.302 12.1361 208.34Z" fill="#E64A19"/>
<circle cx="12.068" cy="220.34" r="6.4186" transform="rotate(-89.6745 12.068 220.34)" fill="white"/>
</svg>
