<svg width="24" height="24" viewBox="0 0 24 24" fill="none" xmlns="http://www.w3.org/2000/svg">
<path fill-rule="evenodd" clip-rule="evenodd" d="M14.453 3.55306L7.08029 10.8438C6.92745 10.9914 6.806 11.1677 6.72307 11.3625C6.64014 11.5573 6.59741 11.7665 6.59741 11.9778C6.59741 12.1892 6.64014 12.3984 6.72307 12.5932C6.806 12.7879 6.92745 12.9643 7.08029 13.1119L14.453 20.4092C15.1172 21.0666 16.0272 21.2572 16.6714 20.5538L16.9504 20.2645C17.4552 19.6992 17.6146 18.9957 17.0235 18.4961C15.2368 16.7276 13.377 14.9526 11.5836 13.1119C11.4324 12.9634 11.3124 12.7867 11.2305 12.5921C11.1486 12.3974 11.1064 12.1887 11.1064 11.9778C11.1064 11.767 11.1486 11.5582 11.2305 11.3636C11.3124 11.169 11.4324 10.9923 11.5836 10.8438L17.0235 5.46614C17.6013 4.96651 17.4552 4.2565 16.9504 3.69112L16.6714 3.40843C16.5194 3.2672 16.3397 3.15841 16.1434 3.08881C15.9472 3.01922 15.7385 2.9903 15.5305 3.00387C15.3224 3.01743 15.1194 3.07318 14.9341 3.16766C14.7487 3.26213 14.585 3.39332 14.453 3.55306Z" fill="#E64A19"/>
</svg>
