<svg width="24" height="24" viewBox="0 0 24 24" fill="none" xmlns="http://www.w3.org/2000/svg">
<path fill-rule="evenodd" clip-rule="evenodd" d="M9.54701 20.4469L16.9197 13.1562C17.0725 13.0086 17.194 12.8323 17.2769 12.6375C17.3599 12.4427 17.4026 12.2335 17.4026 12.0222C17.4026 11.8108 17.3599 11.6016 17.2769 11.4068C17.194 11.2121 17.0725 11.0357 16.9197 10.8881L9.54701 3.59084C8.88281 2.93342 7.97285 2.74277 7.32857 3.44621L7.0496 3.73547C6.5448 4.30085 6.38539 5.00428 6.97653 5.50391C8.76325 7.27236 10.623 9.04737 12.4164 10.8881C12.5676 11.0366 12.6876 11.2133 12.7695 11.4079C12.8514 11.6026 12.8936 11.8113 12.8936 12.0222C12.8936 12.233 12.8514 12.4418 12.7695 12.6364C12.6876 12.831 12.5676 13.0077 12.4164 13.1562L6.97653 18.5339C6.39867 19.0335 6.5448 19.7435 7.0496 20.3089L7.32857 20.5916C7.48058 20.7328 7.6603 20.8416 7.85657 20.9112C8.05285 20.9808 8.26148 21.0097 8.46952 20.9961C8.67756 20.9826 8.88056 20.9268 9.06592 20.8323C9.25128 20.7379 9.41503 20.6067 9.54701 20.4469Z" fill="#E64A19"/>
</svg>
