<svg width="24" height="24" viewBox="0 0 24 24" fill="none" xmlns="http://www.w3.org/2000/svg">
<path d="M9.59367 5.5227C9.59367 4.19625 10.6728 3.11871 11.9976 3.11871C13.3241 3.11871 14.4032 4.19786 14.4032 5.5227V6.57614H16.0219V5.5227C16.0219 3.30499 14.217 1.5 11.9993 1.5C9.78155 1.5 7.97656 3.30499 7.97656 5.5227V6.57614H9.59527V5.5227H9.59367Z" fill="url(#paint0_linear_446_349)"/>
<path d="M20.8269 20.6355C20.8269 20.6307 20.8253 20.6259 20.8253 20.6211L19.0604 8.03109C18.9561 7.20086 18.2479 6.57617 17.4096 6.57617H16.0237V10.0834C16.0237 10.5298 15.6608 10.8927 15.2144 10.8927C14.768 10.8927 14.405 10.5298 14.405 10.0834V6.57617H9.59546V10.0834C9.59546 10.5298 9.23253 10.8927 8.7861 10.8927C8.33967 10.8927 7.97674 10.5298 7.97674 10.0834V6.57617H6.59088C5.75262 6.57617 5.04603 7.20086 4.94005 8.03109L3.1752 20.6211C3.17359 20.6259 3.17359 20.6307 3.17359 20.6355C3.11578 21.1077 3.26513 21.583 3.57988 21.9395C3.89463 22.296 4.34909 22.4999 4.82443 22.4999H19.1744C19.6498 22.4999 20.1042 22.296 20.4206 21.9395C20.7353 21.583 20.8831 21.1077 20.8269 20.6355Z" fill="url(#paint1_linear_446_349)"/>
<defs>
<linearGradient id="paint0_linear_446_349" x1="11.9993" y1="1.5" x2="11.9993" y2="6.57614" gradientUnits="userSpaceOnUse">
<stop stop-color="#EA686B"/>
<stop offset="1" stop-color="#ED8155"/>
</linearGradient>
<linearGradient id="paint1_linear_446_349" x1="12" y1="6.57617" x2="12" y2="22.4999" gradientUnits="userSpaceOnUse">
<stop stop-color="#EA686B"/>
<stop offset="1" stop-color="#ED8155"/>
</linearGradient>
</defs>
</svg>
