<svg width="20" height="20" viewBox="0 0 20 20" fill="none" xmlns="http://www.w3.org/2000/svg">
<path d="M16.3708 3.63916C15.9764 3.24477 15.3393 3.24477 14.9449 3.63916L9.99992 8.57406L5.05491 3.62904C4.66052 3.23466 4.02343 3.23466 3.62904 3.62904C3.23466 4.02343 3.23466 4.66052 3.62904 5.05491L8.57406 9.99992L3.62904 14.9449C3.23466 15.3393 3.23466 15.9764 3.62904 16.3708C4.02343 16.7652 4.66052 16.7652 5.05491 16.3708L9.99992 11.4258L14.9449 16.3708C15.3393 16.7652 15.9764 16.7652 16.3708 16.3708C16.7652 15.9764 16.7652 15.3393 16.3708 14.9449L11.4258 9.99992L16.3708 5.05491C16.7551 4.67063 16.7551 4.02343 16.3708 3.63916Z" fill="#757575"/>
</svg>
