<svg width="42" height="50" viewBox="0 0 42 50" fill="none" xmlns="http://www.w3.org/2000/svg">
<g clip-path="url(#clip0_543_3640)">
<path d="M35.3026 39.44H29.1636V29.826C29.1636 27.5335 29.1226 24.5823 25.9707 24.5823C22.7732 24.5823 22.2841 27.0801 22.2841 29.6591V39.4393H16.1451V19.6692H22.0386V22.371H22.1211C23.3228 20.3163 25.5572 19.0891 27.9359 19.1774C34.1581 19.1774 35.3054 23.27 35.3054 28.5943L35.3026 39.44ZM9.21812 16.9667C7.25056 16.9671 5.65529 15.3723 5.65491 13.4048C5.65452 11.4373 7.24932 9.84199 9.21678 9.84161C11.1843 9.84123 12.7796 11.436 12.78 13.4035C12.7804 15.371 11.1857 16.9664 9.21812 16.9667ZM12.2876 39.4401H6.14223V19.6692H12.2876V39.4401ZM38.3632 4.14067H3.05733C1.38875 4.12182 0.0203848 5.45841 0 7.12699V42.5793C0.0197148 44.2487 1.38789 45.5866 3.05733 45.5688H38.3632C40.036 45.5898 41.4095 44.252 41.4327 42.5793V7.1245C41.4088 5.45257 40.0351 4.11607 38.3632 4.13809V4.14067Z" fill="#0066C5"/>
</g>
<defs>
<clipPath id="clip0_543_3640">
<rect width="42" height="49" fill="white" transform="translate(0 0.5)"/>
</clipPath>
</defs>
</svg>
