<svg width="42" height="32" viewBox="0 0 42 32" fill="none" xmlns="http://www.w3.org/2000/svg">
<path d="M29.0726 0.921875V6.04071C19.5626 6.67133 13.4654 11.7499 10.7807 21.276C18.091 15.6154 24.1802 13.5209 29.0485 14.9928V20.4998C31.2481 18.8339 35.5098 15.462 41.8335 10.3834C35.1375 5.09438 30.884 1.94072 29.0726 0.921875ZM1.85301 4.77919C1.25467 5.39368 0.93103 6.09734 0.882599 6.88991L0.834168 28.0202C0.818024 28.7318 1.09298 29.4029 1.65903 30.0338C2.20894 30.6644 2.83163 31.0122 3.52709 31.077L38.3641 31.0527C39.0596 31.0688 39.7551 30.7049 40.4505 29.961C40.8387 29.5244 41.0489 28.8533 41.0811 27.9474L41.1055 18.1221L37.2725 21.3244V27.3409H4.61871L4.64305 7.69044H12.0909L17.4524 3.85746H3.67289C2.92849 3.93818 2.32195 4.24543 1.85301 4.77919Z" fill="#E64A19"/>
</svg>
