<svg width="40" height="40" viewBox="0 0 40 40" fill="none" xmlns="http://www.w3.org/2000/svg">
<path d="M29.6667 26.6185C28.4422 26.6185 27.3467 27.1004 26.5089 27.8554L15.0217 21.1888C15.1022 20.8193 15.1667 20.4498 15.1667 20.0643C15.1667 19.6787 15.1022 19.3092 15.0217 18.9398L26.38 12.3373C27.25 13.1406 28.3939 13.6386 29.6667 13.6386C32.3411 13.6386 34.5 11.4859 34.5 8.81928C34.5 6.15261 32.3411 4 29.6667 4C26.9922 4 24.8333 6.15261 24.8333 8.81928C24.8333 9.20482 24.8978 9.5743 24.9783 9.94377L13.62 16.5462C12.75 15.743 11.6061 15.245 10.3333 15.245C7.65889 15.245 5.5 17.3976 5.5 20.0643C5.5 22.7309 7.65889 24.8835 10.3333 24.8835C11.6061 24.8835 12.75 24.3855 13.62 23.5823L25.0911 30.2651C25.0106 30.6024 24.9622 30.9558 24.9622 31.3092C24.9622 33.8956 27.0728 36 29.6667 36C32.2606 36 34.3711 33.8956 34.3711 31.3092C34.3711 28.7229 32.2606 26.6185 29.6667 26.6185Z" fill="#E64A19"/>
</svg>
