<svg width="45" height="45" viewBox="0 0 45 45" fill="none" xmlns="http://www.w3.org/2000/svg">
<path fill-rule="evenodd" clip-rule="evenodd" d="M14.0227 31.2257C14.0511 30.7909 14.3724 29.8447 14.5032 29.3587C14.671 28.7364 14.8359 28.1227 15.0093 27.506C15.3335 26.358 15.2368 26.7246 14.7989 25.7471C13.3744 22.5446 14.1848 18.8705 16.0471 16.6057C18.4127 13.73 22.49 12.4229 26.317 13.9858C29.6465 15.3469 32.0576 18.7227 31.8159 22.7322C31.6851 24.8918 30.7156 27.0031 29.2797 28.4665C29.0665 28.6825 28.8817 28.8132 28.6514 29.0178C26.2943 31.1035 22.4957 31.6576 19.533 30.3988C18.5322 29.9725 18.9615 29.9441 17.8071 30.2396C16.6328 30.5465 15.1885 31.0154 14.0227 31.2257ZM21.7849 8.52426C18.6885 8.71749 16.4168 9.61827 14.0881 11.2948C10.4516 13.9176 8.31626 18.4641 8.51244 23.2124C8.68588 27.381 10.8269 31.1632 13.9147 33.533C18.2052 36.8236 23.8946 37.4629 28.7452 35.0192C30.0872 34.3429 31.8643 33.0926 32.7684 32.0156C33.9996 30.5465 34.6962 29.66 35.4752 27.7589C36.985 24.0848 36.8201 19.7599 35.0231 16.2306C34.554 15.3071 33.9797 14.4007 33.3001 13.6022C32.7883 13.0026 32.7315 12.8492 31.9979 12.2268C31.3468 11.6756 31.2956 11.5846 30.5649 11.0504C28.1709 9.30286 24.867 8.33103 21.7849 8.52426Z" fill="#757575"/>
<path fill-rule="evenodd" clip-rule="evenodd" d="M25.0382 23.2451C25.3374 23.2077 27.3598 24.0213 27.426 24.3692C27.518 24.855 27.2879 25.6054 26.7096 25.9705C26.4881 26.1114 26.2378 26.2695 25.9674 26.3558C24.9029 26.6979 23.289 26.0424 22.3799 25.5134C20.4438 24.3864 17.0174 20.8157 18.7867 18.6192C18.9593 18.4036 19.0859 18.1592 19.4081 18.0414C19.6584 17.9494 20.2568 17.9321 20.4467 18.073C20.5934 18.1822 21.022 19.338 21.1486 19.6341C21.5399 20.5598 21.3529 20.5225 20.8092 21.1406C20.5531 21.431 20.602 21.5776 20.8264 21.9053C21.3759 22.7132 22.9237 24.4123 24.1348 24.3778L24.8281 23.5239C24.926 23.4061 24.9375 23.3572 25.0382 23.2451ZM15.999 29.1042L18.3552 28.5034C18.7953 28.3855 18.7292 28.3453 19.083 28.5551C21.4392 29.9639 24.365 29.9236 26.7298 28.5062C27.7482 27.8968 28.5422 27.0889 29.178 26.1085C31.0508 23.2163 30.5704 19.1252 28.0761 16.8023C27.3339 16.1123 26.701 15.6552 25.7257 15.2498C23.6889 14.4045 21.3126 14.4994 19.3707 15.5545C18.3149 16.1295 17.9208 16.5636 17.2073 17.2881C16.9426 17.5584 16.6291 18.0356 16.3989 18.4324C16.1371 18.8837 15.9674 19.2632 15.7976 19.7779C15.4352 20.8617 15.3115 22.0117 15.4898 23.2192C15.8667 25.7952 16.8765 25.89 16.6434 26.7209L15.999 29.1042Z" fill="#757575"/>
</svg>
