<svg width="45" height="45" viewBox="0 0 45 45" fill="none" xmlns="http://www.w3.org/2000/svg">
<g clip-path="url(#clip0_16_5356)">
<path d="M33.6339 16.73C33.6507 16.9789 33.6507 17.229 33.6507 17.4801C33.6507 25.1481 27.8715 33.9905 17.3055 33.9905V33.9859C14.1839 33.9902 11.1271 33.0869 8.5 31.384C8.95385 31.4388 9.41044 31.4668 9.86752 31.4677C12.4548 31.4704 14.9677 30.5937 17.0019 28.9788C14.5442 28.9322 12.3875 27.3129 11.6349 24.9491C12.4957 25.1166 13.3831 25.0825 14.2288 24.8495C11.5484 24.3026 9.62077 21.9235 9.62005 19.1613C9.62005 19.1364 9.62005 19.1116 9.62005 19.0878C10.4189 19.5376 11.3132 19.7867 12.2274 19.8141C9.70285 18.1112 8.92405 14.7193 10.4488 12.0679C13.3658 15.693 17.6693 17.8967 22.2883 18.1307C21.8253 16.1155 22.4583 14.0036 23.9502 12.5864C26.2636 10.3888 29.9026 10.5016 32.0782 12.8384C33.3647 12.5821 34.5984 12.1058 35.726 11.4299C35.2972 12.7737 34.3996 13.9143 33.2004 14.6394C34.3393 14.5035 35.4515 14.1958 36.4999 13.7265C35.7287 14.8916 34.7582 15.9086 33.6339 16.73Z" fill="#757575"/>
</g>
<defs>
<clipPath id="clip0_16_5356">
<rect width="28" height="28.2828" fill="white" transform="translate(8.5 8.3584)"/>
</clipPath>
</defs>
</svg>
