<svg width="45" height="45" viewBox="0 0 45 45" fill="none" xmlns="http://www.w3.org/2000/svg">
<path fill-rule="evenodd" clip-rule="evenodd" d="M26.4606 18.7015C25.9775 18.8294 22.2117 21.2451 21.7001 21.5663C20.9129 22.0608 20.1398 22.5241 19.3668 23.0271C18.0594 23.8769 18.409 23.8684 16.7521 23.3028C15.7602 22.9646 13.8986 22.6349 14.558 21.95C14.9957 21.4952 21.8309 19.0681 22.7119 18.7271C24.565 18.0137 26.4066 17.414 28.271 16.7007C28.9048 16.4591 29.3681 16.3966 29.3397 17.2236C29.297 18.5281 27.2621 26.7133 26.9324 28.0406C26.8017 28.572 26.5317 29.0552 25.8496 28.8136C25.6364 28.7369 25.4602 28.5408 25.3124 28.4214L23.6896 27.2448C23.377 27.0202 22.908 26.6337 22.5783 26.4831L21.919 27.0174C21.3989 27.4267 20.0944 29.0921 19.9182 28.285L20.0432 26.6849C20.2422 24.5505 19.9779 25.0166 20.7367 24.2805L21.5467 23.533C21.649 23.4364 21.6859 23.3739 21.7883 23.2801L24.4513 20.8416C24.8776 20.4607 26.2958 19.2386 26.4606 18.7015ZM36.4733 23.3824C37.0957 12.9434 26.7335 5.81551 17.3773 9.47611C16.4224 9.84842 14.828 10.6954 14.0237 11.349C13.4809 11.7924 12.5771 12.5512 12.182 13.0486C11.2129 14.265 10.9201 14.4384 10.0391 16.1266C7.14302 21.6715 8.43333 28.6914 13.0744 32.8266L14.0152 33.6252C14.5239 34.0743 15.4362 34.6228 16.1382 34.9809C19.7249 36.8169 23.8431 36.9647 27.6373 35.5294C28.4842 35.2111 29.2572 34.8019 29.945 34.3585C31.6588 33.2558 32.3125 32.5737 33.6227 31.0105C35.2057 29.1205 36.317 26.0284 36.4733 23.3824Z" fill="#757575"/>
</svg>
