<svg width="45" height="45" viewBox="0 0 45 45" fill="none" xmlns="http://www.w3.org/2000/svg">
<g clip-path="url(#clip0_16_5348)">
<path d="M36.5 22.5C36.5 29.488 31.3802 35.2799 24.6875 36.3299V26.5469H27.9496L28.5703 22.5H24.6875V19.8739C24.6875 18.7665 25.23 17.6875 26.9691 17.6875H28.7344V14.2422C28.7344 14.2422 27.132 13.9688 25.6002 13.9688C22.4027 13.9688 20.3125 15.9069 20.3125 19.4156V22.5H16.7578V26.5469H20.3125V36.3299C13.6198 35.2799 8.5 29.488 8.5 22.5C8.5 14.7683 14.7683 8.5 22.5 8.5C30.2317 8.5 36.5 14.7683 36.5 22.5Z" fill="#757575"/>
<path d="M27.9496 26.5469L28.5703 22.5H24.6875V19.8739C24.6875 18.7667 25.2299 17.6875 26.969 17.6875H28.7344V14.2422C28.7344 14.2422 27.1323 13.9688 25.6005 13.9688C22.4026 13.9688 20.3125 15.9069 20.3125 19.4156V22.5H16.7578V26.5469H20.3125V36.3299C21.0253 36.4417 21.7558 36.5 22.5 36.5C23.2442 36.5 23.9747 36.4417 24.6875 36.3299V26.5469H27.9496Z" fill="white"/>
</g>
<defs>
<clipPath id="clip0_16_5348">
<rect width="28" height="28" fill="white" transform="translate(8.5 8.5)"/>
</clipPath>
</defs>
</svg>
